<svg width="1018" height="756" viewBox="0 0 1018 756" fill="none" xmlns="http://www.w3.org/2000/svg">
<path d="M320.602 147.298C290.91 152.696 284.803 174.352 307.153 195.097C322.227 209.014 347.825 221.565 367.057 224.427C374.334 225.467 385.119 224.882 390.577 223.126C398.633 220.59 403.636 213.956 402.467 207.453C400.648 197.633 388.043 187.943 371.345 183.651C360.885 180.985 344.057 180.725 343.212 183.261C342.888 184.237 344.187 184.432 355.102 185.277C366.083 186.123 374.269 188.204 382.39 192.171C392.461 197.113 398.309 203.616 398.309 209.859C398.309 216.493 389.472 221.11 376.608 221.11C355.362 221.11 326.125 208.038 308.972 190.87C300.851 182.741 297.992 177.668 297.992 171.035C297.927 167.523 298.252 166.288 299.746 163.686C308.323 149.054 339.899 146.648 376.868 157.833C397.074 163.881 411.758 170.059 423.907 177.473C432.484 182.741 439.241 185.472 434.888 181.895C431.379 178.969 415.461 169.214 409.029 166.027C392.591 157.833 367.512 149.964 349.515 147.298C341.263 146.128 327.035 146.128 320.602 147.298Z" fill="url(#paint0_linear_109_503)"/>
<path d="M340.808 169.149C335.546 169.93 330.478 172.531 328.854 175.197C326.84 178.449 327.034 183.066 329.373 186.708C333.532 193.341 345.551 200.365 358.156 203.552C364.263 205.112 374.529 206.023 375.179 204.982C375.828 203.942 374.919 203.617 369.331 202.836C354.063 200.755 334.116 189.96 331.972 182.676C330.868 179.099 331.972 177.083 336.195 175.002C338.924 173.637 340.549 173.376 347.89 173.116C357.051 172.791 362.574 173.572 374.269 176.628C388.823 180.465 406.04 188.009 417.41 195.553C425.142 200.625 434.238 209.535 436.902 214.542C440.41 221.11 439.111 227.484 433.263 232.491C421.503 242.571 397.399 245.237 368.356 239.58C353.673 236.718 348.93 235.027 322.421 223.061C319.043 221.566 316.184 220.525 315.989 220.72C315.015 221.631 316.899 223.321 323.006 226.898C335.676 234.442 352.503 240.555 368.681 243.482C393.566 248.099 413.902 246.928 427.871 240.035C434.108 236.913 438.006 233.727 440.41 229.695C441.905 227.093 442.164 225.923 442.164 221.761C442.164 217.664 441.84 216.233 440.215 212.981C437.551 207.649 427.741 197.894 419.814 192.626C395.775 176.758 359.975 166.093 340.808 169.149Z" fill="url(#paint1_linear_109_503)"/>
<path d="M284.283 200.365C283.373 201.73 284.738 206.933 287.207 211.875C291.105 219.614 299.551 229.044 299.551 225.597C299.551 225.142 297.472 221.63 294.938 217.728C292.405 213.891 289.221 208.234 287.792 205.177C286.362 202.121 285.063 199.649 284.933 199.649C284.803 199.649 284.478 199.974 284.283 200.365Z" fill="url(#paint2_linear_109_503)"/>
<path d="M457.108 214.607C456.913 214.932 457.238 216.883 457.823 218.834C458.797 222.216 458.797 222.736 457.758 225.858C457.173 227.744 455.809 230.735 454.769 232.556C452.69 236.263 452.365 238.019 453.859 238.019C455.029 238.019 458.342 233.597 460.422 229.239C462.631 224.622 462.501 220.85 460.032 217.013C458.018 213.762 457.758 213.567 457.108 214.607Z" fill="url(#paint3_linear_109_503)"/>
<path d="M720.132 281.535C719.05 282.224 714.808 285.495 710.761 288.759L703.361 294.678L698.282 292.577C691.423 289.757 681.245 286.858 678.388 286.957C676.895 287.009 675.677 287.507 674.927 288.379C673.179 290.457 674.687 292.682 684.311 302.108C689.091 306.822 692.876 310.985 692.762 311.445C692.646 311.839 689.998 314.209 686.9 316.724C683.802 319.24 680.274 322.486 679.023 323.896C676.772 326.447 676.772 326.447 676.64 333.87C676.413 346.046 672.003 361.296 665.61 371.865C657.068 386.088 641.816 401.78 624.817 413.955C617.143 419.492 615.201 421.577 615.98 423.437C616.971 425.745 623.918 423.616 642.097 415.436C655.218 409.513 675.016 397.437 688.12 387.285C701.414 376.996 714.112 362.629 718.828 352.444C719.613 350.725 720.976 348.79 721.802 348.241C723.26 347.149 724.087 344.778 726.842 332.383L728.022 327.071L731.766 326.291C738.731 324.682 745.861 322.221 747.182 320.939C747.936 320.197 748.478 318.942 748.448 318.097C748.38 316.147 746.656 315.166 735.383 310.678C730.768 308.821 726.674 307.011 726.34 306.763C725.937 306.386 725.871 302.614 726.203 297.202C726.705 287.358 726.012 282.372 724.014 281.01C722.482 279.957 722.482 279.957 720.132 281.535ZM722.477 291.019C722.574 293.814 722.484 298.698 722.268 301.829L721.947 307.566L723.894 309.32C725.032 310.257 729.396 312.383 733.548 313.995C741.325 317.043 743.773 318.259 743.209 318.865C743.019 319.001 739.291 320.237 734.847 321.433C726.545 323.869 724.381 325.181 723.847 328.518C722.926 333.821 721.086 342.605 720.603 343.663C720.057 344.788 719.925 344.727 718.697 343.078C717.947 342.063 715.603 338.24 713.459 334.541C711.315 330.841 708.714 327.093 707.704 326.087C705.489 324.081 702.95 323.974 693.457 325.801C686.675 327.079 681.812 327.443 681.785 326.663C681.776 326.403 685.178 323.291 689.348 319.828C695.793 314.463 696.921 313.252 696.869 311.757C696.79 309.483 694.615 306.76 686.73 298.77C681.205 293.171 679.845 291.462 680.884 291.425C681.079 291.419 686.142 293.065 692.06 295.006L702.85 298.665L707.172 295.847C709.525 294.333 713.646 291.327 716.176 289.287C718.768 287.179 721.246 285.531 721.575 285.65C722.034 285.764 722.371 287.965 722.477 291.019ZM700.952 335.692C693.389 361.203 676.686 383.778 653.452 399.879C647.677 403.919 637.854 409.336 637.824 408.491C637.82 408.361 641.094 405.319 645.063 401.667C654.265 393.343 663.146 383.273 667.953 375.688C675.41 363.911 679.93 349.958 680.038 338.111L680.186 331.144L685.118 330.907C687.845 330.812 692.702 330.253 695.868 329.687C699.098 329.119 701.951 328.89 702.22 329.141C702.551 329.324 701.941 332.339 700.952 335.692ZM709.344 335.855C710.176 337.323 712.237 340.505 713.881 342.92C715.59 345.334 716.966 347.498 716.973 347.693C717 348.473 711.754 356.529 707.282 362.541C695.792 377.973 676.119 393.624 651.737 406.641C639.353 413.188 634.866 415.036 643.402 409.989C658.247 401.274 667.619 394.115 677.604 384.007C691.043 370.395 700.947 352.35 704.506 335.048C705.447 330.33 705.444 330.265 706.665 331.719C707.277 332.479 708.511 334.323 709.344 335.855Z" fill="url(#paint4_linear_109_503)"/>
<path d="M660.127 309.587C660.006 309.851 659.755 315.717 659.603 322.554C659.232 338.055 657.904 348.447 654.616 360.47C651.906 370.39 651.654 372.481 653.017 372.433C654.9 372.368 657.646 367.197 660.399 358.512C662.629 351.601 663.536 345.909 663.847 336.137C664.35 322.585 662.09 306.2 660.127 309.587Z" fill="url(#paint5_linear_109_503)"/>
<path d="M741.106 335.011C740.615 335.874 739.231 339.045 737.971 342.082C733.356 353.305 725.516 365.291 714.516 377.972C708.513 384.818 707.477 386.807 709.814 386.725C711.438 386.669 719.453 379.753 724.015 374.453C728.14 369.69 735.106 358.775 737.946 352.56C741.693 344.426 744.367 333.465 742.549 333.529C742.225 333.54 741.598 334.213 741.106 335.011Z" fill="url(#paint6_linear_109_503)"/>
<path d="M637.79 386.954C635.039 390.108 634.583 391.946 636.466 391.88C637.7 391.837 642.25 386.213 642.2 384.783C642.141 383.093 640.35 383.936 637.79 386.954Z" fill="url(#paint7_linear_109_503)"/>
<path d="M685.674 397.326C682.482 398.999 680.451 400.436 680.474 401.086C680.521 402.451 681.816 402.275 686.748 400.152C691.422 398.102 693.699 396.266 693.011 395.183C692.258 394.103 691.226 394.334 685.674 397.326Z" fill="url(#paint8_linear_109_503)"/>
<path d="M325.444 517.449C331.538 520.209 339.063 519.426 344.642 515.468C345.561 514.804 345.801 513.542 345.177 512.6C344.542 511.68 343.305 511.462 342.364 512.117C337.953 515.259 331.992 515.881 327.155 513.69L327.113 513.671C322.255 511.471 318.82 506.541 318.319 501.148C318.023 497.903 318.695 494.281 319.36 490.786C320.495 484.737 321.666 478.493 318.178 473.17C313.934 466.688 305.084 465.975 298.794 467.317C295.739 467.989 292.788 469.052 289.942 470.055C286.679 471.24 283.613 472.329 280.376 472.893C272.937 474.163 265.48 471.972 260.88 467.173C255.966 462.048 254.758 453.804 258.11 448.021C260.656 443.612 265.183 440.892 269.991 438.008C271.369 437.183 272.788 436.323 274.174 435.422C280.796 431.093 287.143 423.583 285.12 415.549C283.227 408.023 275.109 404.742 269.189 402.957C257.105 399.303 244.596 396.748 232.024 395.35C230.926 395.222 229.906 396.052 229.757 397.17C229.608 398.289 230.403 399.308 231.501 399.436C243.83 400.803 256.105 403.305 267.967 406.884C272.985 408.393 279.813 411.063 281.213 416.626C282.706 422.548 277.204 428.596 272.051 431.956C270.759 432.821 269.359 433.637 268.013 434.45C262.957 437.485 257.756 440.612 254.646 445.978C250.419 453.289 251.851 463.637 257.977 470.05C263.465 475.777 272.281 478.426 280.988 476.913C284.55 476.312 287.938 475.079 291.222 473.904C294.079 472.878 296.78 471.913 299.574 471.307C304.639 470.228 311.67 470.644 314.819 475.471C317.408 479.437 316.439 484.613 315.416 490.08C314.705 493.844 313.977 497.758 314.342 501.587C314.964 508.406 319.317 514.595 325.443 517.396L325.507 517.425L325.444 517.449Z" fill="url(#paint9_linear_109_503)"/>
<path d="M204.55 392.007L204.567 392.012C205.302 392.229 206.044 392.387 206.701 392.527L206.733 392.534L206.753 392.538L206.772 392.541C206.956 392.577 207.132 392.624 207.382 392.691C207.462 392.712 207.55 392.736 207.649 392.762C207.995 392.853 208.466 392.971 208.972 393.018C210.664 393.194 212.426 393.037 213.891 392.847C220.549 392.027 224.493 386.259 226.215 381.076C227.257 377.944 227.663 374.517 226.228 371.05C224.942 367.93 222.902 365.234 219.736 363.492L219.712 363.479L219.688 363.466C219.447 363.343 219.175 363.225 218.88 363.133C218.73 363.052 218.568 362.964 218.399 362.872C217.929 362.616 217.405 362.331 216.921 362.093C216.92 362.092 216.919 362.092 216.918 362.091L216.034 363.884C215.19 363.466 214.308 363.319 213.392 363.206L204.55 392.007ZM204.55 392.007L204.534 392.002C201.23 390.965 198.605 388.59 196.907 385.838C195.162 383.031 194.352 379.708 194.575 376.433L194.576 376.404L194.579 376.352C194.801 372.959 196.137 370.034 197.796 367.423L197.801 367.415C199.696 364.463 203.232 361.291 207.413 360.938L207.429 360.937L207.446 360.935C209.523 360.794 211.707 360.973 213.643 361.224L204.55 392.007ZM227.237 407.997L225.437 406.832L226.726 405.12C232.127 397.951 236.261 388.88 236.706 379.516C237.152 370.159 233.607 360.524 226.596 354.618C219.645 348.761 209.158 347.128 201.343 351.324L201.33 351.336L201.097 351.466C195.749 354.435 191.905 359.754 188.695 365.552C184.558 373.043 181.554 381.165 182.766 389.061C183.679 395.001 186.803 400.123 191.128 404.718C195.465 409.326 200.911 413.303 206.308 416.964C216.507 423.866 226.79 430.475 238.211 434.106C240.342 434.775 241.921 435.024 243.081 434.474C244.204 433.936 244.966 432.693 245.924 430.807L245.926 430.803C248.13 426.483 250.335 422.133 252.528 417.793C251.981 417.325 251.431 416.857 250.88 416.388L250.878 416.386C250.375 415.957 249.871 415.527 249.367 415.097C248.79 415.613 248.213 416.132 247.634 416.652L247.632 416.654C246.619 417.565 245.601 418.479 244.583 419.385L243.228 420.591L241.894 419.363C237.341 415.172 232.433 411.361 227.237 407.997Z" stroke="url(#paint10_linear_109_503)" stroke-width="4"/>
<g clip-path="url(#clip0_109_503)">
<path d="M262.155 536.769L273.033 575.423L279.037 572.934L271.833 534.777L262.155 536.769Z" stroke="url(#paint11_linear_109_503)" stroke-width="3" stroke-linecap="round" stroke-linejoin="round"/>
<path d="M262.162 536.769L263.91 520.748L271.844 534.769L270.091 538.245L267.075 536.14L265.14 539.28L262.162 536.769Z" stroke="url(#paint12_linear_109_503)" stroke-width="3" stroke-linecap="round" stroke-linejoin="round"/>
<path d="M263.023 528.845L267.922 527.843L263.91 520.749L263.023 528.845Z" fill="url(#paint13_linear_109_503)"/>
<path d="M252.865 526.669L238.307 532.705L258.511 581.443L273.07 575.407L252.865 526.669Z" stroke="url(#paint14_linear_109_503)" stroke-width="3" stroke-linecap="round" stroke-linejoin="round"/>
<path d="M241.788 541.102L247.58 538.701" stroke="url(#paint15_linear_109_503)" stroke-width="3" stroke-linecap="round" stroke-linejoin="round"/>
<path d="M244.254 545.275L247.265 544.027" stroke="url(#paint16_linear_109_503)" stroke-width="3" stroke-linecap="round" stroke-linejoin="round"/>
<path d="M245.744 548.869L248.755 547.62" stroke="url(#paint17_linear_109_503)" stroke-width="3" stroke-linecap="round" stroke-linejoin="round"/>
<path d="M247.233 552.462L250.245 551.214" stroke="url(#paint18_linear_109_503)" stroke-width="3" stroke-linecap="round" stroke-linejoin="round"/>
<path d="M248.627 557.6L254.419 555.199" stroke="url(#paint19_linear_109_503)" stroke-width="3" stroke-linecap="round" stroke-linejoin="round"/>
<path d="M251.093 561.774L254.105 560.526" stroke="url(#paint20_linear_109_503)" stroke-width="3" stroke-linecap="round" stroke-linejoin="round"/>
<path d="M252.583 565.367L255.595 564.119" stroke="url(#paint21_linear_109_503)" stroke-width="3" stroke-linecap="round" stroke-linejoin="round"/>
<path d="M238.208 547.143C240.193 550.26 239.274 554.387 236.165 556.368C233.048 558.354 228.921 557.434 226.94 554.326C224.995 551.278 226.665 547.814 225.537 545.457C223.853 541.944 220.569 541.335 220.569 541.335C220.569 541.335 231.781 537.044 238.208 547.143Z" stroke="url(#paint22_linear_109_503)" stroke-width="3" stroke-linecap="round" stroke-linejoin="round"/>
<path d="M239.418 554.307L232.915 558.449L235.322 562.228L241.825 558.086L239.418 554.307Z" stroke="url(#paint23_linear_109_503)" stroke-width="3" stroke-linecap="round" stroke-linejoin="round"/>
<path d="M241.923 558.55L238.431 560.409L237.067 561.138L235.021 562.228C235.021 562.228 229.736 569.811 252.15 583.804L255.384 582.463L256.769 581.889L258.155 581.315C250.353 559.533 241.923 558.55 241.923 558.55Z" stroke="url(#paint24_linear_109_503)" stroke-width="3" stroke-linecap="round" stroke-linejoin="round"/>
<path d="M283.762 571.04L242.996 587.939L265.4 632.399C266.057 633.696 267.591 634.262 268.93 633.707L297.816 621.732C299.156 621.177 299.835 619.683 299.386 618.31L283.762 571.04Z" stroke="url(#paint25_linear_109_503)" stroke-width="3" stroke-linecap="round" stroke-linejoin="round"/>
<path d="M254.058 568.978L257.06 567.733" stroke="url(#paint26_linear_109_503)" stroke-width="3" stroke-linecap="round" stroke-linejoin="round"/>
</g>
<path d="M745.216 644.675C747.513 653.214 751.983 660.502 759.484 667.619C766.229 674.021 770.247 676.4 778.686 679.034C783.508 680.565 786.091 680.867 793.627 680.673C802.265 680.451 802.911 680.526 805.858 682.427C817.231 689.905 837.453 689.569 857.702 681.646C875.995 674.462 900.803 658.146 913.869 644.66C918.344 640.039 919.321 638.726 919.113 637.812C918.654 636.123 917.705 636.745 910.294 643.326C893.051 658.851 873.023 671.642 855.545 678.345C842.166 683.563 828.513 685.385 818.207 683.397C814.091 682.537 807.449 679.995 807.382 679.216C807.374 678.94 809.317 677.648 811.672 676.301C816.698 673.367 818.981 671.055 821.079 666.955C823.264 662.669 822.967 658.446 820.214 655.207C817.369 651.969 815.737 651.138 812.101 651.001C807.959 650.832 804.285 652.72 800.987 656.667C796.622 661.928 795.671 667.654 798.165 673.246C798.85 674.791 799.167 676.346 798.809 676.723C797.915 677.666 787.796 677.558 782.986 676.487C768.974 673.49 755.889 662.148 749.147 647.241C747.777 644.15 746.33 641.612 746.007 641.574C744.805 641.329 744.599 642.208 745.216 644.675ZM807.033 655.775C809.795 654.187 814.765 654.335 816.652 656.126C820.332 659.617 819.729 664.599 814.851 669.644C810.826 673.885 804.914 676.336 803.027 674.546C800.669 672.308 799.799 667.272 801.03 663.424C802.352 659.574 803.776 657.79 807.033 655.775Z" fill="url(#paint27_linear_109_503)"/>
<path d="M840.373 671.47C841.6 672.634 849.133 672.349 855.119 670.953C863.022 669.049 869.052 665.813 877.69 658.694C881.65 655.466 882.982 653.684 882.039 652.789C881.284 652.073 879.195 653.046 873.183 656.925C862.468 663.775 853.968 667.443 845.312 668.723C840.319 669.449 839.052 670.217 840.373 671.47Z" fill="url(#paint28_linear_109_503)"/>
<path d="M929.473 588.349C929.644 589.586 931.722 593.348 935.852 599.955L938.736 604.663L934.46 615.026C929.536 626.923 929.118 628.497 930.392 629.706C931.901 631.138 934.629 629.965 941.935 624.627C945.769 621.816 949.199 619.429 949.656 619.325C950.615 619.07 954.531 622.786 960.556 629.758C966.201 636.279 966.899 636.583 969.717 633.614C970.7 632.577 975.795 623.618 980.958 613.738C986.212 603.855 991.513 594.018 992.833 591.777C995.649 587.014 996.226 584.517 994.82 583.541C994.212 583.143 990.166 583.155 985.67 583.547C981.175 583.938 971.113 584.243 963.295 584.168C939.427 584 937.497 584.05 934.608 584.354C931.72 584.658 929.288 586.56 929.473 588.349ZM946.474 587.911C952.683 587.982 961.788 588.023 966.661 587.99C971.534 587.957 975.814 588.076 976.139 588.206C976.742 588.42 973.468 589.792 953.447 597.663C944.619 601.109 941.745 601.964 941.313 601.286C936.5 593.225 934.222 588.824 934.669 588.353C934.937 588.07 940.22 587.888 946.474 587.911ZM964.741 597.005C982.32 590.668 985.241 589.857 982.317 592.277C972.508 600.346 955.399 612.234 949.181 615.291C946.958 616.406 943.472 618.472 941.398 619.997C939.321 621.43 937.286 622.724 936.874 622.78C936.462 622.837 936.992 620.294 938.106 617.231C939.128 614.17 940.358 610.322 940.776 608.748L941.575 605.923L944.754 604.462C946.573 603.679 955.54 600.276 964.741 597.005ZM959.337 613.375C963.362 610.834 983.53 596.384 984.782 595.064C985.992 593.884 984.65 596.999 981.192 603.571C979.177 607.301 975.426 614.938 972.816 620.522C970.251 626.06 967.895 630.81 967.626 631.093C967.134 631.611 965.528 629.998 956.948 620.333C955.337 618.535 954.235 616.862 954.503 616.579C954.727 616.344 956.94 614.862 959.337 613.375Z" fill="url(#paint29_linear_109_503)"/>
<path d="M302.242 674.44C301.402 674.792 297.946 677.65 294.495 680.858C291.045 684.065 287.339 687.168 286.225 687.706L284.176 688.706L279.454 677.441C274.782 666.295 274.707 666.116 272.79 665.58C268.846 664.416 265.874 666.577 255.411 678.29C251.697 682.383 248.417 685.66 248.162 685.555C247.907 685.451 247.737 677.139 247.854 667.156C247.946 657.114 247.909 648.112 247.748 647.053C247.171 643.49 243.261 641.395 239.902 642.803C237.563 643.784 234.234 647.786 222.827 663.134C216.48 671.712 210.378 679.695 209.199 680.753C205.075 684.877 204.61 682.254 206.563 664.034C208.928 641.415 208.931 634.862 206.459 636.532C205.3 637.3 204.571 640.776 202.377 656.067C199.155 677.988 199.68 685.8 204.476 688.157C208.115 689.943 212.204 685.904 226.116 667.11C240.226 647.951 241.484 646.578 242.363 648.675C242.615 649.275 242.677 656.152 242.501 663.976C242.061 686.14 242.494 690.538 245.408 692.275C247.676 693.649 250.399 691.733 257.991 683.267C267.306 673.022 269.793 670.711 270.899 671.164C271.495 671.407 272.625 674.103 274.431 679.757C278.802 693.213 281.273 695.911 287.09 693.472C290.989 691.838 293.51 689.442 299.439 681.885C304.315 675.685 305.18 673.208 302.242 674.44Z" fill="url(#paint30_linear_109_503)"/>
<path d="M760.194 372.43C760.043 372.38 759.902 372.299 759.771 372.189C759.228 371.758 759.102 370.981 759.482 370.389L772.495 350.18C772.906 349.548 773.754 349.362 774.388 349.773C775.021 350.184 775.208 351.031 774.797 351.663L768.374 361.62L778.308 351.878C778.85 351.357 779.704 351.357 780.242 351.903C780.765 352.444 780.767 353.297 780.22 353.833L761.569 372.119C761.198 372.48 760.656 372.6 760.189 372.445L760.194 372.43Z" fill="url(#paint31_linear_109_503)"/>
<path d="M772.888 334.474C774.049 334.315 774.569 334.813 775.551 335.755C775.622 335.823 775.696 335.894 775.773 335.967C775.749 336.2 785.91 344.869 789.966 348.319L790.647 346.272M772.888 334.474L793.023 354.478C793.856 353.937 794.065 352.754 793.742 351.811C793.645 351.527 793.478 351.279 793.272 351.054L793.507 350.347L793.512 350.332L791.621 349.703C791.729 349.575 791.829 349.458 791.92 349.35C791.92 349.35 791.92 349.35 791.92 349.35C792.903 348.191 792.903 348.191 792.903 348.191L792.903 348.19L792.9 348.188L792.892 348.181L792.858 348.152L792.726 348.04L792.223 347.613C791.833 347.282 791.292 346.822 790.647 346.272M772.888 334.474C771.397 334.679 770.209 336.389 770.824 337.762L772.888 334.474ZM790.647 346.272L790.663 346.222L792.928 348.192C793.037 348.287 793.177 348.393 793.391 348.551C793.407 348.563 793.424 348.576 793.441 348.588C793.628 348.726 793.867 348.903 794.098 349.093C794.585 349.495 795.29 350.159 795.634 351.163C796.143 352.649 795.968 354.949 794.113 356.155L794.106 356.16L794.106 356.16C792.78 357.014 791.369 356.834 790.359 356.47C789.369 356.114 788.494 355.498 787.866 354.99C782.037 350.337 776.304 345.548 770.677 340.644L770.671 340.638L770.665 340.633C770.65 340.62 770.635 340.607 770.62 340.593C770.199 340.222 769.443 339.553 769.005 338.594L769.001 338.587L768.998 338.58C768.347 337.125 768.711 335.633 769.39 334.589C770.064 333.552 771.212 332.686 772.615 332.492L772.617 332.492C773.667 332.348 774.575 332.53 775.418 333.047C775.987 333.396 776.525 333.915 776.958 334.332C777.026 334.397 777.09 334.46 777.152 334.519L777.862 335.195L777.859 335.225C778.271 335.601 778.852 336.118 779.555 336.735C781.029 338.03 783.003 339.734 784.983 341.433C786.961 343.131 788.942 344.821 790.428 346.086C790.502 346.149 790.575 346.211 790.647 346.272Z" stroke="url(#paint32_linear_109_503)" stroke-width="4"/>
<path d="M800.906 312.591L800.906 312.591C800.7 312.424 800.502 312.268 800.307 312.133C800.254 312.097 800.204 312.064 800.158 312.034C799.788 312.595 799.545 313.391 799.265 314.594C799.238 314.711 799.21 314.833 799.181 314.96C798.883 316.276 798.47 318.093 797.367 319.544L797.361 319.552L797.361 319.552C796.694 320.42 795.884 321.136 795.236 321.705M800.906 312.591L794.766 341.458C794.766 341.458 794.766 341.458 794.766 341.458M800.906 312.591L800.911 312.595C804.398 315.408 807.874 318.201 811.348 320.993L811.348 320.993L800.906 312.591ZM795.236 321.705C795.235 321.705 795.235 321.706 795.234 321.706L793.914 320.204M795.236 321.705C795.236 321.704 795.237 321.704 795.237 321.703L793.914 320.204M795.236 321.705C794.895 322.006 794.554 322.306 794.213 322.607C790.694 325.711 787.158 328.831 783.473 332.133M793.914 320.204C793.573 320.505 793.231 320.806 792.889 321.108C789.365 324.216 785.817 327.347 782.119 330.661C781.263 331.428 781.23 332.76 782.063 333.552C785.682 336.992 789.542 340.172 793.6 343.083C794.557 343.77 795.893 343.457 796.493 342.443C799.265 337.76 802.62 333.014 805.905 328.365C806.144 328.027 806.383 327.688 806.622 327.351C807.661 325.882 808.776 325.516 810.268 325.027C810.768 324.863 811.31 324.685 811.906 324.447C816.132 322.762 814.055 320.602 812.601 319.434L811.349 320.993C811.67 321.251 811.96 321.514 812.174 321.766C812.243 321.847 812.293 321.914 812.329 321.968M793.914 320.204L812.329 321.968M783.473 332.133C783.462 332.123 783.452 332.112 783.441 332.102C783.441 332.102 783.443 332.104 783.446 332.108C783.449 332.113 783.451 332.117 783.453 332.122C783.457 332.131 783.457 332.137 783.457 332.139C783.457 332.141 783.456 332.144 783.455 332.147C783.455 332.147 783.454 332.148 783.454 332.149C783.454 332.149 783.454 332.15 783.453 332.15C783.453 332.15 783.453 332.151 783.452 332.151C783.452 332.152 783.452 332.152 783.452 332.152C783.452 332.152 783.452 332.151 783.454 332.15C783.46 332.144 783.467 332.139 783.473 332.133ZM783.473 332.133C787.009 335.491 790.782 338.599 794.749 341.447M794.749 341.447C794.746 341.448 794.743 341.449 794.74 341.45C794.74 341.45 794.739 341.45 794.739 341.45C794.737 341.451 794.74 341.45 794.746 341.451C794.751 341.452 794.755 341.453 794.76 341.455C794.763 341.457 794.765 341.458 794.766 341.458M794.749 341.447C794.752 341.446 794.754 341.444 794.756 341.443C794.758 341.441 794.761 341.439 794.763 341.436C794.765 341.434 794.768 341.43 794.772 341.424C797.588 336.669 800.987 331.859 804.261 327.226C804.504 326.882 804.746 326.539 804.988 326.197L804.989 326.195C805.929 324.868 806.972 324.164 808.11 323.679C808.614 323.465 809.139 323.293 809.608 323.139L809.65 323.125C810.151 322.96 810.636 322.801 811.164 322.59L811.165 322.59C811.814 322.331 812.159 322.107 812.329 321.968M794.749 341.447C794.755 341.451 794.76 341.454 794.766 341.458M794.766 341.458L812.329 321.968M812.329 321.968C812.402 322.077 812.419 322.131 812.42 322.131C812.421 322.131 812.42 322.129 812.419 322.125C812.412 322.088 812.407 322.015 812.429 321.93C812.446 321.867 812.467 321.835 812.467 321.835C812.466 321.835 812.464 321.839 812.458 321.846C812.437 321.872 812.397 321.913 812.329 321.968ZM799.783 311.841C799.783 311.841 799.785 311.841 799.787 311.842C799.785 311.841 799.783 311.841 799.783 311.841Z" stroke="url(#paint33_linear_109_503)" stroke-width="4"/>
<path d="M303.907 264.988C304.329 266.041 305.555 270.259 306.57 274.377C309.432 285.97 313.811 293.655 318.114 294.716C319.828 295.181 320.461 295.02 322.31 293.756C324.461 292.316 327.225 287.958 327.629 285.4C327.789 284.719 328.217 284.063 328.603 284.005C329.641 283.915 339.792 291.06 343.311 294.342C346.135 296.939 348.644 300.504 348.905 302.238C349.147 303.844 345.923 308.206 341.866 311.839C332.994 319.744 329.699 324.511 329.617 329.648C329.585 337.734 340.584 343.963 363.815 348.878C376.112 351.495 378.733 352.744 377.207 355.273C376.844 355.919 373.671 358.433 370.157 360.867C359.258 368.42 356.179 372.432 357.02 378.021C357.871 383.675 365.33 389.977 374.595 392.985C380.319 394.752 386.339 395.423 387.213 394.24C388.033 393.132 387.061 392.358 384.235 391.929C375.671 390.524 364.775 384.542 362.664 380.129C360.618 375.706 361.264 374.755 372.747 366.719C380.781 361.108 383.047 359.125 383.944 357.216C386.887 350.991 382.783 346.878 370.965 344.386C354.918 340.887 348.956 339.287 344.37 337.218C339.433 335.004 336.361 332.509 336.052 330.454C335.675 327.948 338.352 324.326 345.415 317.941C354.378 309.759 355.894 307.166 355.034 301.447C354.599 298.556 353.933 296.751 352.363 294.622C349.873 291.186 341.555 284.422 336.487 281.768L332.84 279.82L336.662 278.128C341.173 276.201 342.906 274.166 343.814 270.153C346.28 259.006 332.515 251.879 313.995 254.666C306.663 255.769 303.657 257.207 303.079 259.922C302.598 261.966 302.749 262.534 303.907 264.988ZM313.482 259.999C329.311 257.683 341.934 263.34 337.316 270.671C336.034 272.638 335.85 272.731 329.365 273.772C325.709 274.388 322.374 274.956 321.934 275.088C320.86 275.381 321.279 277.289 322.771 278.904C323.855 279.989 324.016 280.622 323.683 282.775C323.387 285.184 320.662 289.799 319.505 289.974C318.797 290.08 315.741 285.941 314.534 283.166C313.936 281.81 312.362 276.594 311.074 271.531C309.731 266.543 308.505 262.325 308.357 262.216C307.321 261.452 309.173 260.648 313.482 259.999Z" fill="url(#paint34_linear_109_503)"/>
<g clip-path="url(#clip1_109_503)">
<path d="M768.959 518.133L748.646 505.488C746.922 504.414 744.654 504.942 743.58 506.666L700.633 575.655C699.559 577.379 700.087 579.647 701.811 580.721L722.124 593.366C723.848 594.44 726.116 593.912 727.19 592.188L770.137 523.199C771.211 521.474 770.683 519.206 768.959 518.133Z" stroke="url(#paint35_linear_109_503)" stroke-width="3" stroke-linecap="round" stroke-linejoin="round"/>
<path d="M759.523 540.249L732.966 523.716L743.58 506.666C744.656 504.938 746.919 504.412 748.646 505.488L768.959 518.133C770.687 519.208 771.213 521.471 770.137 523.199L759.523 540.249Z" stroke="url(#paint36_linear_109_503)" stroke-width="3" stroke-linecap="round" stroke-linejoin="round"/>
<path d="M759.523 540.249L732.966 523.716L720.409 543.888L746.966 560.421L759.523 540.249Z" stroke="url(#paint37_linear_109_503)" stroke-width="3" stroke-linecap="round" stroke-linejoin="round"/>
<path d="M746.971 560.412L720.414 543.879L707.856 564.052L734.413 580.584L746.971 560.412Z" stroke="url(#paint38_linear_109_503)" stroke-width="3" stroke-linecap="round" stroke-linejoin="round"/>
<path d="M768.637 527.5L724.659 593.995C723.073 595.265 704.385 581.641 705.655 583.227L719.587 602.141C720.857 603.727 723.172 603.983 724.757 602.713L788.191 551.918C789.776 550.649 790.032 548.334 788.763 546.749L773.807 528.072C772.537 526.486 770.223 526.23 768.637 527.5Z" stroke="url(#paint39_linear_109_503)" stroke-width="3" stroke-linecap="round" stroke-linejoin="round"/>
<path d="M772.514 564.46L757.259 544.316L768.632 527.494C770.212 526.227 772.536 526.481 773.804 528.061L788.76 546.73C790.027 548.31 789.773 550.635 788.193 551.902L772.519 564.451L772.514 564.46Z" stroke="url(#paint40_linear_109_503)" stroke-width="3" stroke-linecap="round" stroke-linejoin="round"/>
<path d="M756.713 545.192L744.155 565.365L753.971 579.315L772.519 564.462L756.713 545.192Z" stroke="url(#paint41_linear_109_503)" stroke-width="3" stroke-linecap="round" stroke-linejoin="round"/>
<path d="M743.444 565.53L730.34 586.579L735.415 594.164L753.963 579.311L743.444 565.53Z" stroke="url(#paint42_linear_109_503)" stroke-width="3" stroke-linecap="round" stroke-linejoin="round"/>
<path d="M785.926 555.795L722.705 603.731C720.791 604.411 709.406 587.877 710.087 589.791L715.133 610.253C715.814 612.167 717.917 613.167 719.831 612.486L796.403 585.271C798.316 584.591 799.317 582.488 798.636 580.574L790.623 558.029C789.943 556.115 787.84 555.114 785.926 555.795Z" stroke="url(#paint43_linear_109_503)" stroke-width="3" stroke-linecap="round" stroke-linejoin="round"/>
<path d="M777.481 592.001L768.674 568.009L785.921 555.806C787.841 555.127 789.942 556.131 790.617 558.036L798.628 580.571C799.307 582.491 798.303 584.592 796.398 585.267L777.477 591.987L777.481 592.001Z" stroke="url(#paint44_linear_109_503)" stroke-width="3" stroke-linecap="round" stroke-linejoin="round"/>
<path d="M769.018 567.456L748.459 583.864L755.095 599.965L777.484 592.007L769.018 567.456Z" stroke="url(#paint45_linear_109_503)" stroke-width="3" stroke-linecap="round" stroke-linejoin="round"/>
<path d="M748.459 583.864L729.704 598.353L732.707 607.92L755.097 599.962L748.459 583.864Z" stroke="url(#paint46_linear_109_503)" stroke-width="3" stroke-linecap="round" stroke-linejoin="round"/>
</g>
<path d="M827.304 436.7C826.394 437.415 824.64 439.691 823.47 441.707L821.326 445.414L814.309 445.934C806.123 446.585 804.434 447.105 803.459 449.251C802.289 451.787 803.199 453.543 808.007 458.421C810.541 460.892 812.62 463.363 812.62 463.818C812.62 464.273 811.84 467.265 810.931 470.387C809.956 473.573 809.371 476.695 809.631 477.28C810.216 478.906 812.62 478.255 818.792 474.744C821.651 473.118 824.315 471.752 824.64 471.752C825.03 471.752 827.044 472.663 829.188 473.703C833.736 475.914 835.945 476.109 838.024 474.419C839.323 473.378 839.583 472.468 839.778 468.305L840.038 463.363L844.066 460.827C849.264 457.38 851.473 455.364 851.993 453.218C852.772 449.966 848.744 447.755 842.052 447.69C838.089 447.69 836.14 446.715 835.62 444.634C834.905 441.707 833.021 437.61 831.787 436.44C830.357 435.009 829.383 435.074 827.304 436.7ZM829.513 445.479C829.513 445.999 829.058 446.39 828.538 446.39C827.434 446.39 827.369 446.259 827.953 444.829C828.408 443.658 829.513 444.048 829.513 445.479ZM817.818 452.568C817.818 453.413 816.258 456.795 815.869 456.795C815.089 456.795 811.321 453.543 811.321 452.893C811.321 452.568 811.97 452.242 812.815 452.112C814.179 451.917 817.818 452.242 817.818 452.568ZM829.708 452.828C831.397 453.478 831.722 454.193 832.436 458.095C832.826 460.306 832.761 460.437 829.318 462.323L825.744 464.208L823.145 462.453L820.482 460.697L821.456 457.9C823.21 452.828 825.679 451.332 829.708 452.828ZM842.767 454.454C842.377 455.494 839.388 456.925 838.609 456.47C838.349 456.34 837.959 455.559 837.764 454.844C837.439 453.673 837.764 453.543 840.298 453.543C842.377 453.543 843.027 453.738 842.767 454.454ZM818.467 467.46C818.467 467.655 818.208 467.98 817.818 468.175C817.493 468.371 817.168 468.24 817.168 467.915C817.168 467.525 817.493 467.2 817.818 467.2C818.208 467.2 818.467 467.33 818.467 467.46Z" fill="url(#paint47_linear_109_503)"/>
<path d="M126.028 596.036C125.99 597.193 126.602 600 127.392 602.193L128.849 606.22L124.73 611.925C119.958 618.608 119.269 620.236 120.284 622.363C121.472 624.891 123.401 625.325 130.229 624.785C133.751 624.437 136.981 624.436 137.329 624.729C137.677 625.022 139.465 627.545 141.268 630.25C143.08 633.047 145.092 635.504 145.707 635.682C147.328 636.281 148.378 634.023 149.663 627.039C150.259 623.804 150.929 620.887 151.138 620.638C151.389 620.34 153.382 619.384 155.558 618.413C160.178 616.356 161.749 614.791 161.794 612.112C161.834 610.448 161.304 609.663 158.245 606.834L154.63 603.454L155.282 598.739C155.99 592.542 155.869 589.554 154.561 587.775C152.575 585.085 148.29 586.745 143.932 591.824C141.381 594.857 139.38 595.721 137.453 594.779C134.753 593.442 130.405 592.247 128.714 592.438C126.699 592.611 126.122 593.399 126.028 596.036ZM134.168 599.997C134.566 600.332 134.572 600.931 134.238 601.329C133.527 602.174 133.385 602.14 132.667 600.772C132.064 599.67 133.073 599.076 134.168 599.997ZM132.065 613.51C132.712 614.054 134.296 617.424 134.045 617.722C133.543 618.319 128.629 619.11 128.132 618.691C127.883 618.482 128.052 617.775 128.496 617.045C129.225 615.875 131.816 613.3 132.065 613.51ZM139.918 604.578C141.503 603.704 142.259 603.916 145.705 605.881C147.648 607.006 147.706 607.139 146.933 610.988L146.076 614.937L143.059 615.795L140.001 616.704L138.488 614.158C135.735 609.55 136.18 606.698 139.918 604.578ZM149.568 595.631C150.113 596.599 149.284 599.807 148.434 600.111C148.167 600.226 147.319 600.022 146.646 599.71C145.541 599.205 145.651 598.873 147.282 596.934C148.62 595.343 149.188 594.971 149.568 595.631ZM143.88 622.599C144.029 622.724 144.111 623.133 144.009 623.556C143.949 623.931 143.641 624.096 143.392 623.886C143.093 623.635 143.054 623.177 143.263 622.929C143.514 622.63 143.781 622.515 143.88 622.599Z" fill="url(#paint48_linear_109_503)"/>
<path d="M211.623 272.211C211.585 273.368 212.198 276.176 212.988 278.368L214.445 282.395L210.326 288.1C205.554 294.784 204.865 296.411 205.88 298.538C207.068 301.066 208.997 301.5 215.825 300.96C219.347 300.612 222.576 300.612 222.925 300.905C223.273 301.198 225.061 303.72 226.864 306.426C228.675 309.223 230.688 311.679 231.303 311.857C232.923 312.456 233.973 310.198 235.259 303.214C235.855 299.98 236.524 297.062 236.734 296.813C236.985 296.515 238.978 295.56 241.154 294.589C245.774 292.532 247.345 290.967 247.389 288.287C247.43 286.623 246.9 285.838 243.84 283.01L240.225 279.629L240.877 274.914C241.586 268.718 241.465 265.729 240.157 263.95C238.17 261.26 233.885 262.92 229.528 267.999C226.977 271.032 224.975 271.896 223.048 270.954C220.349 269.617 216 268.422 214.31 268.613C212.295 268.786 211.717 269.574 211.623 272.211ZM219.764 276.172C220.162 276.507 220.168 277.106 219.833 277.504C219.122 278.349 218.981 278.315 218.263 276.947C217.66 275.845 218.669 275.251 219.764 276.172ZM217.661 289.685C218.308 290.229 219.892 293.599 219.641 293.898C219.139 294.494 214.225 295.285 213.727 294.866C213.478 294.657 213.648 293.951 214.092 293.221C214.821 292.051 217.412 289.476 217.661 289.685ZM225.513 280.753C227.098 279.879 227.855 280.091 231.301 282.056C233.244 283.181 233.302 283.314 232.528 287.164L231.671 291.112L228.655 291.971L225.596 292.879L224.084 290.333C221.331 285.726 221.776 282.873 225.513 280.753ZM235.164 271.806C235.709 272.774 234.88 275.982 234.03 276.286C233.763 276.401 232.915 276.197 232.242 275.886C231.137 275.381 231.247 275.048 232.878 273.109C234.216 271.518 234.784 271.147 235.164 271.806ZM229.476 298.774C229.625 298.9 229.707 299.308 229.605 299.732C229.545 300.106 229.237 300.271 228.988 300.062C228.689 299.81 228.649 299.352 228.858 299.104C229.109 298.805 229.376 298.69 229.476 298.774Z" fill="url(#paint49_linear_109_503)"/>
<path d="M74.2558 640.39C72.8948 640.508 70.5625 641.376 69.0515 642.272C66.7434 643.635 66.0766 644.497 64.5579 648.026C63.0236 651.41 62.8144 652.72 63.0292 656.061L63.3448 660.063L58.381 660.925C52.0491 662.111 44.0869 662.275 35.9317 661.466C30.6446 660.959 28.0343 660.337 21.251 657.887C16.7439 656.213 12.4266 654.401 11.6419 653.901C10.8797 653.341 9.76079 652.995 9.16032 653.118C8.16475 653.373 8.11947 653.495 8.70746 654.338C10.3949 656.699 14.1883 658.801 21.6415 661.5C28.2803 663.966 30.6853 664.582 36.8321 665.2C45.0255 666.093 52.8051 665.86 60.209 664.587C65.2946 663.77 65.2946 663.77 66.3262 665.471C68.0378 668.327 73.5374 674.046 77.5464 677.062C84.8177 682.676 92.7668 685.906 108.855 689.8L112.037 690.566L112.686 694.414C114.472 704.721 125.381 716.403 137.379 720.86C145.967 724.05 158.351 725.042 171.048 723.514C178.149 722.683 182.671 721.518 183.078 720.421C183.441 719.445 182.026 719.336 172.984 719.793C156.757 720.565 149.484 719.806 140.348 716.413C130.116 712.612 123.087 706.533 119.222 698.091C116.008 691.07 116.205 690.726 123.156 690.672C140.184 690.545 153.355 682.325 151.2 673.2C149.837 667.352 144.179 664.487 135.457 665.202C129.542 665.641 122.903 668.587 118.822 672.482C116.486 674.667 115.313 676.52 113.597 680.392L111.33 685.378L106.939 684.51C104.55 684.039 99.4421 682.489 95.5441 681.041C84.8246 677.059 77.2277 671.948 72.2278 665.443L70.0062 662.468L74.0009 660.483C78.5805 658.229 82.9344 654.158 84.0666 651.11C85.0629 648.427 84.314 644.472 82.5375 642.911C80.5627 641.137 77.0005 640.091 74.2558 640.39ZM80.3919 647.941C80.3927 650.924 76.7228 654.834 71.9832 656.958C68.77 658.332 68.2063 657.983 67.7861 654.636C67.3347 651 69.7638 646.699 72.9316 645.448C76.411 644.104 80.3543 645.43 80.3919 647.941ZM146.226 673.156C146.784 674.266 147.047 675.612 146.843 676.16C145.507 679.757 137.914 684.152 131.255 685.286C127.614 685.946 118.846 686.227 117.628 685.775C117.263 685.639 117.608 683.963 118.332 682.012C120.755 675.489 127.89 670.647 136.307 669.819C141.835 669.305 144.986 670.337 146.226 673.156Z" fill="url(#paint50_linear_109_503)"/>
<g clip-path="url(#clip2_109_503)">
<path d="M958.286 441.478C958.709 440.956 959.132 440.419 959.537 439.868C977.675 415.811 974.152 381.312 951.519 361.42C926.629 339.537 888.799 342.896 868.097 368.378C867.868 368.66 867.639 368.942 867.409 369.225C857.626 381.738 862.303 399.822 876.681 406.576C879.603 407.942 882.41 409.696 885.027 411.823C891.083 416.743 895.356 423.054 897.743 429.92C906.821 456.01 940.898 462.95 958.277 441.471L958.286 441.478ZM874.42 379.506C877.7 375.469 883.637 374.855 887.675 378.135C891.712 381.415 892.327 387.352 889.047 391.39C885.767 395.427 879.829 396.041 875.792 392.761C871.754 389.481 871.14 383.544 874.42 379.506Z" stroke="url(#paint51_linear_109_503)" stroke-width="4" stroke-linecap="round" stroke-linejoin="round"/>
<path d="M942.585 430.952C939.565 428.499 939.115 424.072 941.561 421.061C944.007 418.05 948.441 417.591 951.452 420.037C954.463 422.483 954.922 426.917 952.476 429.928C950.029 432.939 945.596 433.398 942.585 430.952Z" stroke="url(#paint52_linear_109_503)" stroke-width="4" stroke-linecap="round" stroke-linejoin="round"/>
<path d="M947.152 406.874C944.132 404.42 943.682 399.994 946.128 396.983C948.574 393.972 953.008 393.513 956.019 395.959C959.03 398.405 959.488 402.839 957.042 405.85C954.596 408.861 950.162 409.32 947.152 406.874Z" stroke="url(#paint53_linear_109_503)" stroke-width="4" stroke-linecap="round" stroke-linejoin="round"/>
<path d="M938.906 384.811C935.887 382.358 935.436 377.931 937.882 374.92C940.328 371.909 944.762 371.45 947.773 373.896C950.784 376.343 951.243 380.776 948.797 383.787C946.351 386.798 941.917 387.257 938.906 384.811Z" stroke="url(#paint54_linear_109_503)" stroke-width="4" stroke-linecap="round" stroke-linejoin="round"/>
<path d="M916.804 373.146C913.785 370.692 913.334 366.266 915.78 363.255C918.227 360.244 922.66 359.785 925.671 362.231C928.682 364.677 929.141 369.111 926.695 372.122C924.249 375.133 919.815 375.592 916.804 373.146Z" stroke="url(#paint55_linear_109_503)" stroke-width="4" stroke-linecap="round" stroke-linejoin="round"/>
</g>
<path d="M148.655 436.247C145.926 437.418 142.612 441.385 142.158 444.051C140.858 450.685 147.745 457.578 157.296 459.399C161.909 460.244 164.963 459.594 167.562 457.123C169.446 455.302 169.771 454.586 169.771 451.985C169.771 446.262 165.807 441.905 160.09 441.32C153.593 440.735 150.864 444.246 153.593 449.839C155.997 454.782 158.79 454.652 157.426 449.709C157.036 448.213 156.906 446.718 157.101 446.392C158.271 444.506 164.118 447.108 165.223 450.034C166.132 452.31 166.067 452.701 164.573 454.196C160.739 458.033 147.875 453.221 146.121 447.238C145.471 445.157 147.29 441.385 149.759 439.889C151.514 438.784 152.878 438.588 157.621 438.654C160.739 438.719 163.468 438.588 163.663 438.393C165.937 436.117 153.073 434.296 148.655 436.247Z" fill="url(#paint56_linear_109_503)"/>
<path d="M751.655 467.247C748.926 468.418 745.612 472.385 745.158 475.051C743.858 481.685 750.745 488.578 760.296 490.399C764.909 491.244 767.963 490.594 770.562 488.123C772.446 486.302 772.771 485.586 772.771 482.985C772.771 477.262 768.807 472.905 763.09 472.32C756.593 471.735 753.864 475.246 756.593 480.839C758.997 485.782 761.79 485.652 760.426 480.709C760.036 479.213 759.906 477.718 760.101 477.392C761.271 475.506 767.118 478.108 768.223 481.034C769.132 483.31 769.067 483.701 767.573 485.196C763.739 489.033 750.875 484.221 749.121 478.238C748.471 476.157 750.29 472.385 752.759 470.889C754.514 469.784 755.878 469.588 760.621 469.654C763.739 469.719 766.468 469.588 766.663 469.393C768.937 467.117 756.073 465.296 751.655 467.247Z" fill="url(#paint57_linear_109_503)"/>
<path d="M853.655 596.247C850.926 597.418 847.612 601.385 847.158 604.051C845.858 610.685 852.745 617.578 862.296 619.399C866.909 620.244 869.963 619.594 872.562 617.123C874.446 615.302 874.771 614.586 874.771 611.985C874.771 606.262 870.807 601.905 865.09 601.32C858.593 600.735 855.864 604.246 858.593 609.839C860.997 614.782 863.79 614.652 862.426 609.709C862.036 608.213 861.906 606.718 862.101 606.392C863.271 604.506 869.118 607.108 870.223 610.034C871.132 612.31 871.067 612.701 869.573 614.196C865.739 618.033 852.875 613.221 851.121 607.238C850.471 605.157 852.29 601.385 854.759 599.889C856.514 598.784 857.878 598.588 862.621 598.654C865.739 598.719 868.468 598.588 868.663 598.393C870.937 596.117 858.073 594.296 853.655 596.247Z" fill="url(#paint58_linear_109_503)"/>
<path d="M41.1996 541.847C43.7731 542.949 44.0955 541.432 41.9827 538.124C39.227 533.805 39.1379 527.554 41.8061 522.772C43.8762 518.956 43.1875 517.44 40.1071 519.142C36.521 521.258 34.4505 525.717 34.724 530.773C35.0891 536.197 37.4773 540.24 41.1996 541.847Z" fill="url(#paint59_linear_109_503)"/>
<path d="M63.3047 549.237C68.2676 551.625 72.1282 552.45 77.8277 552.356C84.3545 552.261 90.0546 551.063 95.8931 548.532C98.4676 547.428 100.72 546.462 100.904 546.462C101.042 546.416 101.271 548.116 101.408 550.276C101.819 556.389 105.539 561.949 109.859 562.866C114.685 563.829 122.04 561.528 129.489 556.744C132.017 555.134 134.73 553.708 135.419 553.662C136.155 553.569 141.486 554.302 147.231 555.265C158.124 557.052 162.122 557.188 163.64 555.671C164.744 554.567 163.779 553.603 160.332 552.455C158.861 551.996 155.691 550.113 153.302 548.276C151.004 546.438 146.915 543.636 144.25 541.983C135.565 536.609 134.049 535.461 133.912 534.128C133.866 533.439 134.281 530.451 134.88 527.463C136.631 518.545 135.117 511.697 130.477 506.965C126.618 503.106 120.459 502.19 113.38 504.491L111.035 505.182L111.359 502.01C112.051 496.172 111.549 488.037 110.31 484.407C108.703 479.765 105.258 476.044 101.719 475.08C97.6286 474.025 92.1579 476.188 86.8699 481.016L82.5015 484.925L81.3532 483.225C71.1103 468.292 59.0257 460.346 47.3966 460.949C43.4896 461.18 38.4328 463.113 36.3174 465.228C34.3401 467.206 32.2694 472.309 32.0838 475.894C31.436 485.271 38.6479 494.414 53.582 503.186C56.7985 505.115 59.6014 506.998 59.785 507.458C60.0146 507.871 58.6348 509.894 56.1055 512.791C49.7591 520.057 48.2866 523.642 49.2028 530.169C50.2563 537.936 56.09 545.885 63.3047 549.237ZM53.6594 534.257C50.6752 526.859 51.9183 522.4 59.0004 514.307C65.6227 506.766 65.4391 506.306 54.5029 499.693C49.8159 496.845 47.105 494.778 43.2459 490.919C38.6517 486.416 38.0086 485.498 36.7692 482.051C32.4083 470.148 42.4323 461.503 55.2999 466.185C62.8826 468.893 69.4528 474.36 76.2511 483.549C79.7421 488.236 80.3394 488.833 81.902 489.2C83.9242 489.567 83.5564 489.843 89.1204 484.462C101.72 472.23 110.036 479.994 107.452 501.69C106.99 505.643 106.943 509.182 107.264 509.504C108.137 510.377 109.7 510.1 112.734 508.628C118.159 506.052 124.686 506.416 127.856 509.586C131.439 513.17 132.539 520.983 130.604 529.717C129.729 533.532 130.188 536.106 132.025 537.944C132.577 538.495 136.436 541.159 140.572 543.823C150.864 550.529 152.748 551.861 152.196 552.413C151.921 552.689 148.152 552.231 143.786 551.36C139.42 550.58 135.145 550.077 134.318 550.261C133.444 550.491 131.054 551.779 128.985 553.113C121.582 557.943 113.951 560.52 110.183 559.419C106.552 558.272 103.751 551.424 104.857 546.184C105.548 543.196 104.813 541.266 103.113 541.313C102.423 541.359 99.9867 542.417 97.642 543.567C86.0564 549.64 72.5429 550.198 63.1687 545.054C59.6305 543.08 55.1284 538.026 53.6594 534.257Z" fill="url(#paint60_linear_109_503)"/>
<path d="M83.5222 562.833C84.6253 562.741 87.2455 562.326 89.314 561.819L93.1294 560.944L94.6907 564.069C96.2979 567.423 98.0438 568.893 99.0555 567.882C99.3774 567.56 99.4238 566.595 99.1484 565.675C98.873 564.848 98.2767 562.32 97.91 560.114C96.7636 554.461 95.9363 554.278 87.4313 558.005C83.6156 559.615 80.5353 561.134 80.5352 561.409C80.5347 562.421 81.6836 562.926 83.5222 562.833Z" fill="url(#paint61_linear_109_503)"/>
<path d="M138.769 565.657C143.457 565.471 149.479 564.687 150.95 564.042C152.559 563.26 151.962 562.02 149.894 561.883C147.09 561.746 135.323 563.314 134.771 563.866C133.575 565.062 135.229 565.796 138.769 565.657Z" fill="url(#paint62_linear_109_503)"/>
<path d="M153.259 541.795C159.692 544.825 162.404 545.146 161.118 542.664C160.521 541.516 151.147 536.832 149.032 536.649C145.861 536.329 148.388 539.407 153.259 541.795Z" fill="url(#paint63_linear_109_503)"/>
<path d="M90.7358 470.167C91.1954 470.259 92.8043 469.937 94.3673 469.476C97.907 468.325 100.527 468.37 104.295 469.839C108.293 471.354 112.566 475.535 114.448 479.901C115.78 482.888 115.918 483.117 116.929 482.657C118.4 482.013 117.897 477.463 116.014 474.108C113.075 468.87 105.585 464.231 100.207 464.372C96.8057 464.465 92.5304 465.984 90.645 467.869C89.1735 469.341 89.1732 469.892 90.7358 470.167Z" fill="url(#paint64_linear_109_503)"/>
<g clip-path="url(#clip3_109_503)">
<path d="M360.017 26.0754C360.99 25.7714 361.797 25.8013 362.438 26.1652C363.079 26.5291 363.745 27.1675 364.439 28.0917L404.717 78.6275C404.828 78.7889 404.928 78.9908 405.005 79.2367C405.215 79.9073 405.147 80.5542 404.82 81.1963C404.493 81.8384 403.986 82.2548 403.315 82.4645L396.765 84.5122C395.547 84.8931 394.617 84.9016 393.976 84.5377C393.323 84.1773 392.842 83.7757 392.501 83.3545L385.43 74.4732L356.671 83.4644L355.918 94.7918C355.889 95.3283 355.711 95.9361 355.38 96.604C355.06 97.2684 354.291 97.7911 353.073 98.172L346.523 100.22C345.852 100.429 345.206 100.362 344.564 100.035C343.921 99.708 343.505 99.2002 343.295 98.5295C343.218 98.2836 343.186 98.0608 343.186 97.8645L347.517 33.3823C347.564 32.2387 347.736 31.3382 348.064 30.6591C348.384 29.9946 349.041 29.5069 350.002 29.2064L360.017 26.0754ZM377.514 64.4576L359.392 41.6572L357.484 70.7196L377.503 64.4611L377.514 64.4576Z" stroke="url(#paint65_linear_109_503)" stroke-width="4" stroke-linecap="round" stroke-linejoin="round"/>
<path d="M402.09 43.6948C401.937 42.3437 402.07 40.8053 402.499 39.0762C402.927 37.3471 403.742 35.5956 404.953 33.8182C406.164 32.0408 407.803 30.3751 409.884 28.8288C411.965 27.2825 414.551 26.0198 417.648 25.0519C420.744 24.0839 423.656 23.6273 426.404 23.664C429.151 23.7007 431.664 24.2404 433.945 25.2573C436.226 26.2742 438.234 27.8304 439.943 29.9219C441.663 32.0098 443.003 34.6092 443.971 37.7053L452.337 64.4637C452.547 65.1344 452.479 65.7813 452.152 66.4234C451.825 67.0654 451.317 67.4818 450.647 67.6915L443.728 69.8546C443.057 70.0642 442.41 69.9966 441.768 69.6697C441.126 69.3428 440.71 68.835 440.5 68.1643L439.56 65.1576C438.835 67.3109 437.473 69.3929 435.458 71.3849C433.454 73.3734 430.598 74.9533 426.899 76.1099C424.294 76.9241 421.85 77.308 419.562 77.2503C417.277 77.2038 415.245 76.7471 413.45 75.9097C411.654 75.0723 410.113 73.91 408.811 72.4152C407.509 70.9203 406.539 69.1501 405.892 67.0823C404.585 62.902 405.045 59.1511 407.281 55.8632C409.513 52.5641 412.981 49.7252 417.686 47.3095L431.721 40.124C430.942 37.6314 429.578 36.1317 427.613 35.6171C425.649 35.1024 423.465 35.2208 421.039 35.9791C419.519 36.4543 418.401 37.0371 417.684 37.7274C416.967 38.4177 416.333 39.254 415.767 40.2287C415.373 40.8917 414.971 41.3731 414.583 41.7029C414.181 42.025 413.717 42.2682 413.169 42.4394L404.708 45.0847C404.105 45.2734 403.523 45.2588 402.995 45.0192C402.455 44.7832 402.148 44.3515 402.082 43.7095L402.09 43.6948ZM425.314 64.6054C427.371 63.9625 429.124 63.0953 430.555 62.022C431.983 60.9376 433.095 59.7435 433.875 58.4322C434.666 57.1173 435.143 55.778 435.31 54.3884C435.48 53.0101 435.357 51.6743 434.959 50.4001L434.676 49.4948L422.984 55.5427C420.624 56.7467 419.031 57.9317 418.202 59.0866C417.362 60.245 417.16 61.5228 417.597 62.92C417.995 64.1942 418.937 64.9304 420.434 65.1251C421.93 65.3198 423.556 65.1429 425.311 64.5943L425.314 64.6054Z" stroke="url(#paint66_linear_109_503)" stroke-width="4" stroke-linecap="round" stroke-linejoin="round"/>
<path d="M316.179 40.8364L335.727 103.362" stroke="url(#paint67_linear_109_503)" stroke-width="4" stroke-linecap="round" stroke-linejoin="round"/>
<path d="M312.501 41.9861L319.867 39.6832" stroke="url(#paint68_linear_109_503)" stroke-width="3" stroke-linecap="round" stroke-linejoin="round"/>
<path d="M332.098 104.668L339.464 102.365" stroke="url(#paint69_linear_109_503)" stroke-width="3" stroke-linecap="round" stroke-linejoin="round"/>
</g>
<path d="M771.776 79.7504C769.213 79.3354 764.493 79.3793 761.373 79.8774C754.276 81.0816 741.038 86.3694 733.486 91.0546C730.325 92.9889 727.594 94.5593 727.366 94.4202C727.214 94.3275 727.103 92.7986 727.284 91.1341C727.561 86.9184 725.941 79.1442 724.268 76.2445C723.423 74.8939 721.193 72.9073 719.216 71.7017C715.948 69.7079 715.154 69.6413 710.531 70.8931C704.317 72.5312 699.231 76.4235 694.459 83.2214C688.112 92.0867 689.138 91.7729 681.537 87.1361C672.035 81.3401 664.514 79.9893 658.656 83.0969C653.058 85.9466 651.536 91.1776 654.073 98.9886C654.91 101.378 656.807 104.937 658.442 106.873C661.589 110.777 676.785 122.969 684.902 128.129C701.668 138.773 763.498 174.713 766.774 175.668C771.757 177.246 782.159 175.239 787.9 171.642C792.75 168.649 797.737 161.67 798.061 157.378C798.719 147.235 791.932 140.068 775.514 133.811C771.447 132.27 768.022 130.703 767.887 130.412C767.874 130.091 770.124 127.6 772.956 124.839C783.329 114.672 788.568 102.834 786.686 93.4383C785.112 85.5881 780.516 81.3235 771.776 79.7504ZM780.158 92.1708C783.935 99.4861 778.696 111.324 766.681 122.473C760.894 128.026 760.354 128.74 760.368 130.941C760.555 134.396 761.087 134.72 774.718 139.903C782.775 142.938 784.692 143.899 787.801 146.839C792.063 150.796 793.225 154.533 791.694 158.923C789.961 163.817 786.04 167.167 779.64 169.109C769.306 172.201 772.351 173.536 730.571 148.157C710.229 135.852 688.273 122.773 681.672 119.06C668.243 111.495 664.04 107.783 660.398 100.759C659.194 98.4585 658.335 94.9073 658.503 92.9219C658.637 89.4539 658.776 89.2256 661.275 88.0356C665.813 85.8969 670.905 87.124 680.027 92.6881C685.881 96.2585 688.575 97.4843 689.601 97.1704C690.428 96.8399 693.555 93.4232 696.534 89.3941C705.392 77.7801 712.099 73.6239 717.192 76.7306C720.537 78.7708 722.284 87.8753 720.864 95.6743C719.984 100.879 720.052 101.965 721.648 102.938C723.245 103.912 724.853 103.327 732.649 98.5826C744.236 91.5566 747.854 89.9005 757.559 87.1556C769.346 83.9055 776.727 85.4845 780.158 92.1708Z" fill="url(#paint70_linear_109_503)"/>
<path d="M709.108 152.394C704.853 153.557 697.626 157.71 696.466 159.612C695.213 161.666 697.401 163.209 700.537 162.513C707.33 161.123 715.721 154.549 713.799 152.228C713.406 151.675 711.282 151.737 709.108 152.394Z" fill="url(#paint71_linear_109_503)"/>
<path d="M737.518 172.334C736.37 172.677 733.563 174.201 731.077 175.712C722.926 180.867 722.708 185.328 730.83 181.93C738.906 178.609 744.822 170.107 737.518 172.334Z" fill="url(#paint72_linear_109_503)"/>
<path d="M668.636 133.763C665.668 134.353 659.654 137.888 658.632 139.562C657.658 141.16 658.625 142.481 660.808 142.664C665.144 142.907 674.886 135.487 672.301 133.91C671.693 133.539 670.059 133.482 668.636 133.763Z" fill="url(#paint73_linear_109_503)"/>
<path d="M698.657 180.471C695.871 181.277 691.979 182.87 689.999 184.063C687.083 185.938 686.635 186.501 687.083 187.818C687.815 190.039 690.623 190.394 695.093 189.05C699.365 187.689 704.253 183.78 704.729 181.46C705.159 179.217 704.213 179.057 698.657 180.471Z" fill="url(#paint74_linear_109_503)"/>
<path d="M663.382 159.476C661.963 159.237 655.948 162.771 654.881 164.521C654.51 165.13 654.641 165.941 655.173 166.265C656.997 167.378 659.784 166.572 662.919 163.996C666.486 161.056 666.616 159.987 663.382 159.476Z" fill="url(#paint75_linear_109_503)"/>
<defs>
<linearGradient id="paint0_linear_109_503" x1="364.962" y1="224.942" x2="364.962" y2="146.42" gradientUnits="userSpaceOnUse">
<stop stop-color="#2FEFFA"/>
<stop offset="1" stop-color="#535AB4"/>
</linearGradient>
<linearGradient id="paint1_linear_109_503" x1="378.955" y1="246.248" x2="378.955" y2="168.626" gradientUnits="userSpaceOnUse">
<stop stop-color="#2FEFFA"/>
<stop offset="1" stop-color="#535AB4"/>
</linearGradient>
<linearGradient id="paint2_linear_109_503" x1="291.776" y1="226.329" x2="291.776" y2="199.649" gradientUnits="userSpaceOnUse">
<stop stop-color="#2FEFFA"/>
<stop offset="1" stop-color="#535AB4"/>
</linearGradient>
<linearGradient id="paint3_linear_109_503" x1="457.46" y1="238.019" x2="457.46" y2="214.046" gradientUnits="userSpaceOnUse">
<stop stop-color="#2FEFFA"/>
<stop offset="1" stop-color="#535AB4"/>
</linearGradient>
<linearGradient id="paint4_linear_109_503" x1="683.931" y1="422.017" x2="679.051" y2="281.788" gradientUnits="userSpaceOnUse">
<stop stop-color="#2FEFFA"/>
<stop offset="1" stop-color="#535AB4"/>
</linearGradient>
<linearGradient id="paint5_linear_109_503" x1="658.814" y1="372.232" x2="656.623" y2="309.277" gradientUnits="userSpaceOnUse">
<stop stop-color="#2FEFFA"/>
<stop offset="1" stop-color="#535AB4"/>
</linearGradient>
<linearGradient id="paint6_linear_109_503" x1="726.789" y1="386.135" x2="724.98" y2="334.14" gradientUnits="userSpaceOnUse">
<stop stop-color="#2FEFFA"/>
<stop offset="1" stop-color="#535AB4"/>
</linearGradient>
<linearGradient id="paint7_linear_109_503" x1="638.898" y1="391.795" x2="638.627" y2="384.026" gradientUnits="userSpaceOnUse">
<stop stop-color="#2FEFFA"/>
<stop offset="1" stop-color="#535AB4"/>
</linearGradient>
<linearGradient id="paint8_linear_109_503" x1="686.922" y1="401.768" x2="686.679" y2="394.776" gradientUnits="userSpaceOnUse">
<stop stop-color="#2FEFFA"/>
<stop offset="1" stop-color="#535AB4"/>
</linearGradient>
<linearGradient id="paint9_linear_109_503" x1="304.531" y1="418.469" x2="270.892" y2="492.742" gradientUnits="userSpaceOnUse">
<stop stop-color="#2FEFFA"/>
<stop offset="1" stop-color="#535AB4"/>
</linearGradient>
<linearGradient id="paint10_linear_109_503" x1="244.915" y1="370.348" x2="198.759" y2="415.409" gradientUnits="userSpaceOnUse">
<stop stop-color="#2FEFFA"/>
<stop offset="1" stop-color="#535AB4"/>
</linearGradient>
<linearGradient id="paint11_linear_109_503" x1="266.191" y1="556.384" x2="275.869" y2="554.393" gradientUnits="userSpaceOnUse">
<stop stop-color="#2FEFFA"/>
<stop offset="1" stop-color="#535AB4"/>
</linearGradient>
<linearGradient id="paint12_linear_109_503" x1="261.235" y1="521.857" x2="268.331" y2="538.974" gradientUnits="userSpaceOnUse">
<stop stop-color="#2FEFFA"/>
<stop offset="1" stop-color="#535AB4"/>
</linearGradient>
<linearGradient id="paint13_linear_109_503" x1="262.556" y1="521.31" x2="265.654" y2="528.783" gradientUnits="userSpaceOnUse">
<stop stop-color="#2FEFFA"/>
<stop offset="1" stop-color="#535AB4"/>
</linearGradient>
<linearGradient id="paint14_linear_109_503" x1="245.586" y1="529.687" x2="265.79" y2="578.425" gradientUnits="userSpaceOnUse">
<stop stop-color="#2FEFFA"/>
<stop offset="1" stop-color="#535AB4"/>
</linearGradient>
<linearGradient id="paint15_linear_109_503" x1="244.684" y1="539.901" x2="245.067" y2="540.825" gradientUnits="userSpaceOnUse">
<stop stop-color="#2FEFFA"/>
<stop offset="1" stop-color="#535AB4"/>
</linearGradient>
<linearGradient id="paint16_linear_109_503" x1="245.76" y1="544.651" x2="246.143" y2="545.575" gradientUnits="userSpaceOnUse">
<stop stop-color="#2FEFFA"/>
<stop offset="1" stop-color="#535AB4"/>
</linearGradient>
<linearGradient id="paint17_linear_109_503" x1="247.249" y1="548.245" x2="247.632" y2="549.168" gradientUnits="userSpaceOnUse">
<stop stop-color="#2FEFFA"/>
<stop offset="1" stop-color="#535AB4"/>
</linearGradient>
<linearGradient id="paint18_linear_109_503" x1="248.739" y1="551.838" x2="249.122" y2="552.762" gradientUnits="userSpaceOnUse">
<stop stop-color="#2FEFFA"/>
<stop offset="1" stop-color="#535AB4"/>
</linearGradient>
<linearGradient id="paint19_linear_109_503" x1="251.523" y1="556.4" x2="251.906" y2="557.324" gradientUnits="userSpaceOnUse">
<stop stop-color="#2FEFFA"/>
<stop offset="1" stop-color="#535AB4"/>
</linearGradient>
<linearGradient id="paint20_linear_109_503" x1="252.599" y1="561.15" x2="252.982" y2="562.073" gradientUnits="userSpaceOnUse">
<stop stop-color="#2FEFFA"/>
<stop offset="1" stop-color="#535AB4"/>
</linearGradient>
<linearGradient id="paint21_linear_109_503" x1="254.089" y1="564.743" x2="254.472" y2="565.667" gradientUnits="userSpaceOnUse">
<stop stop-color="#2FEFFA"/>
<stop offset="1" stop-color="#535AB4"/>
</linearGradient>
<linearGradient id="paint22_linear_109_503" x1="227.115" y1="538.621" x2="234.76" y2="557.062" gradientUnits="userSpaceOnUse">
<stop stop-color="#2FEFFA"/>
<stop offset="1" stop-color="#535AB4"/>
</linearGradient>
<linearGradient id="paint23_linear_109_503" x1="236.167" y1="556.378" x2="238.574" y2="560.157" gradientUnits="userSpaceOnUse">
<stop stop-color="#2FEFFA"/>
<stop offset="1" stop-color="#535AB4"/>
</linearGradient>
<linearGradient id="paint24_linear_109_503" x1="240.369" y1="559.194" x2="250.803" y2="584.363" gradientUnits="userSpaceOnUse">
<stop stop-color="#2FEFFA"/>
<stop offset="1" stop-color="#535AB4"/>
</linearGradient>
<linearGradient id="paint25_linear_109_503" x1="263.379" y1="579.49" x2="283.373" y2="627.72" gradientUnits="userSpaceOnUse">
<stop stop-color="#2FEFFA"/>
<stop offset="1" stop-color="#535AB4"/>
</linearGradient>
<linearGradient id="paint26_linear_109_503" x1="255.559" y1="568.355" x2="255.942" y2="569.279" gradientUnits="userSpaceOnUse">
<stop stop-color="#2FEFFA"/>
<stop offset="1" stop-color="#535AB4"/>
</linearGradient>
<linearGradient id="paint27_linear_109_503" x1="874.609" y1="686.048" x2="784.348" y2="600.394" gradientUnits="userSpaceOnUse">
<stop stop-color="#2FEFFA"/>
<stop offset="1" stop-color="#535AB4"/>
</linearGradient>
<linearGradient id="paint28_linear_109_503" x1="868.412" y1="668.969" x2="854.117" y2="655.403" gradientUnits="userSpaceOnUse">
<stop stop-color="#2FEFFA"/>
<stop offset="1" stop-color="#535AB4"/>
</linearGradient>
<linearGradient id="paint29_linear_109_503" x1="979.831" y1="622.956" x2="935.482" y2="580.869" gradientUnits="userSpaceOnUse">
<stop stop-color="#2FEFFA"/>
<stop offset="1" stop-color="#535AB4"/>
</linearGradient>
<linearGradient id="paint30_linear_109_503" x1="201.183" y1="684.092" x2="291.995" y2="646.026" gradientUnits="userSpaceOnUse">
<stop stop-color="#2FEFFA"/>
<stop offset="1" stop-color="#535AB4"/>
</linearGradient>
<linearGradient id="paint31_linear_109_503" x1="774.062" y1="349.618" x2="765.849" y2="374.326" gradientUnits="userSpaceOnUse">
<stop stop-color="#2FEFFA"/>
<stop offset="1" stop-color="#535AB4"/>
</linearGradient>
<linearGradient id="paint32_linear_109_503" x1="784.534" y1="338.068" x2="780.235" y2="350.999" gradientUnits="userSpaceOnUse">
<stop stop-color="#2FEFFA"/>
<stop offset="1" stop-color="#535AB4"/>
</linearGradient>
<linearGradient id="paint33_linear_109_503" x1="802.932" y1="310.779" x2="792.134" y2="343.262" gradientUnits="userSpaceOnUse">
<stop stop-color="#2FEFFA"/>
<stop offset="1" stop-color="#535AB4"/>
</linearGradient>
<linearGradient id="paint34_linear_109_503" x1="379.898" y1="320.21" x2="313.103" y2="330.26" gradientUnits="userSpaceOnUse">
<stop stop-color="#2FEFFA"/>
<stop offset="1" stop-color="#535AB4"/>
</linearGradient>
<linearGradient id="paint35_linear_109_503" x1="758.803" y1="511.81" x2="711.967" y2="587.044" gradientUnits="userSpaceOnUse">
<stop stop-color="#2FEFFA"/>
<stop offset="1" stop-color="#535AB4"/>
</linearGradient>
<linearGradient id="paint36_linear_109_503" x1="758.803" y1="511.81" x2="746.245" y2="531.982" gradientUnits="userSpaceOnUse">
<stop stop-color="#2FEFFA"/>
<stop offset="1" stop-color="#535AB4"/>
</linearGradient>
<linearGradient id="paint37_linear_109_503" x1="746.245" y1="531.982" x2="733.687" y2="552.155" gradientUnits="userSpaceOnUse">
<stop stop-color="#2FEFFA"/>
<stop offset="1" stop-color="#535AB4"/>
</linearGradient>
<linearGradient id="paint38_linear_109_503" x1="733.692" y1="552.146" x2="721.135" y2="572.318" gradientUnits="userSpaceOnUse">
<stop stop-color="#2FEFFA"/>
<stop offset="1" stop-color="#535AB4"/>
</linearGradient>
<linearGradient id="paint39_linear_109_503" x1="736.92" y1="552.897" x2="756.474" y2="577.316" gradientUnits="userSpaceOnUse">
<stop stop-color="#2FEFFA"/>
<stop offset="1" stop-color="#535AB4"/>
</linearGradient>
<linearGradient id="paint40_linear_109_503" x1="782.219" y1="533.056" x2="765.419" y2="560.043" gradientUnits="userSpaceOnUse">
<stop stop-color="#2FEFFA"/>
<stop offset="1" stop-color="#535AB4"/>
</linearGradient>
<linearGradient id="paint41_linear_109_503" x1="747.668" y1="552.436" x2="763.245" y2="571.888" gradientUnits="userSpaceOnUse">
<stop stop-color="#2FEFFA"/>
<stop offset="1" stop-color="#535AB4"/>
</linearGradient>
<linearGradient id="paint42_linear_109_503" x1="734.013" y1="573.082" x2="744.846" y2="586.611" gradientUnits="userSpaceOnUse">
<stop stop-color="#2FEFFA"/>
<stop offset="1" stop-color="#535AB4"/>
</linearGradient>
<linearGradient id="paint43_linear_109_503" x1="747.64" y1="569.402" x2="758.117" y2="598.879" gradientUnits="userSpaceOnUse">
<stop stop-color="#2FEFFA"/>
<stop offset="1" stop-color="#535AB4"/>
</linearGradient>
<linearGradient id="paint44_linear_109_503" x1="793.9" y1="559.139" x2="774.57" y2="590.189" gradientUnits="userSpaceOnUse">
<stop stop-color="#2FEFFA"/>
<stop offset="1" stop-color="#535AB4"/>
</linearGradient>
<linearGradient id="paint45_linear_109_503" x1="757.303" y1="571.62" x2="765.999" y2="596.089" gradientUnits="userSpaceOnUse">
<stop stop-color="#2FEFFA"/>
<stop offset="1" stop-color="#535AB4"/>
</linearGradient>
<linearGradient id="paint46_linear_109_503" x1="738.078" y1="587.554" x2="743.902" y2="603.941" gradientUnits="userSpaceOnUse">
<stop stop-color="#2FEFFA"/>
<stop offset="1" stop-color="#535AB4"/>
</linearGradient>
<linearGradient id="paint47_linear_109_503" x1="827.544" y1="478.126" x2="827.544" y2="435.42" gradientUnits="userSpaceOnUse">
<stop stop-color="#2FEFFA"/>
<stop offset="1" stop-color="#535AB4"/>
</linearGradient>
<linearGradient id="paint48_linear_109_503" x1="157.885" y1="622.518" x2="125.204" y2="595.028" gradientUnits="userSpaceOnUse">
<stop stop-color="#2FEFFA"/>
<stop offset="1" stop-color="#535AB4"/>
</linearGradient>
<linearGradient id="paint49_linear_109_503" x1="243.481" y1="298.693" x2="210.799" y2="271.204" gradientUnits="userSpaceOnUse">
<stop stop-color="#2FEFFA"/>
<stop offset="1" stop-color="#535AB4"/>
</linearGradient>
<linearGradient id="paint50_linear_109_503" x1="89.6975" y1="703.15" x2="108.698" y2="651.993" gradientUnits="userSpaceOnUse">
<stop stop-color="#2FEFFA"/>
<stop offset="1" stop-color="#535AB4"/>
</linearGradient>
<linearGradient id="paint51_linear_109_503" x1="965.617" y1="432.453" x2="875.512" y2="359.25" gradientUnits="userSpaceOnUse">
<stop stop-color="#2FEFFA"/>
<stop offset="1" stop-color="#535AB4"/>
</linearGradient>
<linearGradient id="paint52_linear_109_503" x1="952.476" y1="429.928" x2="941.561" y2="421.061" gradientUnits="userSpaceOnUse">
<stop stop-color="#2FEFFA"/>
<stop offset="1" stop-color="#535AB4"/>
</linearGradient>
<linearGradient id="paint53_linear_109_503" x1="957.042" y1="405.85" x2="946.128" y2="396.983" gradientUnits="userSpaceOnUse">
<stop stop-color="#2FEFFA"/>
<stop offset="1" stop-color="#535AB4"/>
</linearGradient>
<linearGradient id="paint54_linear_109_503" x1="948.797" y1="383.787" x2="937.882" y2="374.92" gradientUnits="userSpaceOnUse">
<stop stop-color="#2FEFFA"/>
<stop offset="1" stop-color="#535AB4"/>
</linearGradient>
<linearGradient id="paint55_linear_109_503" x1="926.695" y1="372.122" x2="915.78" y2="363.255" gradientUnits="userSpaceOnUse">
<stop stop-color="#2FEFFA"/>
<stop offset="1" stop-color="#535AB4"/>
</linearGradient>
<linearGradient id="paint56_linear_109_503" x1="155.885" y1="459.75" x2="155.885" y2="435.42" gradientUnits="userSpaceOnUse">
<stop stop-color="#2FEFFA"/>
<stop offset="1" stop-color="#535AB4"/>
</linearGradient>
<linearGradient id="paint57_linear_109_503" x1="758.885" y1="490.75" x2="758.885" y2="466.42" gradientUnits="userSpaceOnUse">
<stop stop-color="#2FEFFA"/>
<stop offset="1" stop-color="#535AB4"/>
</linearGradient>
<linearGradient id="paint58_linear_109_503" x1="860.885" y1="619.75" x2="860.885" y2="595.42" gradientUnits="userSpaceOnUse">
<stop stop-color="#2FEFFA"/>
<stop offset="1" stop-color="#535AB4"/>
</linearGradient>
<linearGradient id="paint59_linear_109_503" x1="48.0299" y1="523.963" x2="35.2234" y2="536.769" gradientUnits="userSpaceOnUse">
<stop stop-color="#2FEFFA"/>
<stop offset="1" stop-color="#535AB4"/>
</linearGradient>
<linearGradient id="paint60_linear_109_503" x1="119.41" y1="491.018" x2="61.2874" y2="549.141" gradientUnits="userSpaceOnUse">
<stop stop-color="#2FEFFA"/>
<stop offset="1" stop-color="#535AB4"/>
</linearGradient>
<linearGradient id="paint61_linear_109_503" x1="97.3926" y1="557.033" x2="86.5381" y2="567.887" gradientUnits="userSpaceOnUse">
<stop stop-color="#2FEFFA"/>
<stop offset="1" stop-color="#535AB4"/>
</linearGradient>
<linearGradient id="paint62_linear_109_503" x1="148.031" y1="558.885" x2="138.249" y2="568.667" gradientUnits="userSpaceOnUse">
<stop stop-color="#2FEFFA"/>
<stop offset="1" stop-color="#535AB4"/>
</linearGradient>
<linearGradient id="paint63_linear_109_503" x1="156.742" y1="538.244" x2="152.436" y2="542.55" gradientUnits="userSpaceOnUse">
<stop stop-color="#2FEFFA"/>
<stop offset="1" stop-color="#535AB4"/>
</linearGradient>
<linearGradient id="paint64_linear_109_503" x1="110.9" y1="468.195" x2="99.5047" y2="479.59" gradientUnits="userSpaceOnUse">
<stop stop-color="#2FEFFA"/>
<stop offset="1" stop-color="#535AB4"/>
</linearGradient>
<linearGradient id="paint65_linear_109_503" x1="355.004" y1="27.6426" x2="374.919" y2="91.3421" gradientUnits="userSpaceOnUse">
<stop stop-color="#2FEFFA"/>
<stop offset="1" stop-color="#535AB4"/>
</linearGradient>
<linearGradient id="paint66_linear_109_503" x1="416.496" y1="25.4118" x2="431.861" y2="74.5584" gradientUnits="userSpaceOnUse">
<stop stop-color="#2FEFFA"/>
<stop offset="1" stop-color="#535AB4"/>
</linearGradient>
<linearGradient id="paint67_linear_109_503" x1="316.656" y1="40.6872" x2="336.204" y2="103.213" gradientUnits="userSpaceOnUse">
<stop stop-color="#2FEFFA"/>
<stop offset="1" stop-color="#535AB4"/>
</linearGradient>
<linearGradient id="paint68_linear_109_503" x1="316.184" y1="40.8347" x2="316.483" y2="41.7891" gradientUnits="userSpaceOnUse">
<stop stop-color="#2FEFFA"/>
<stop offset="1" stop-color="#535AB4"/>
</linearGradient>
<linearGradient id="paint69_linear_109_503" x1="335.781" y1="103.517" x2="336.079" y2="104.471" gradientUnits="userSpaceOnUse">
<stop stop-color="#2FEFFA"/>
<stop offset="1" stop-color="#535AB4"/>
</linearGradient>
<linearGradient id="paint70_linear_109_503" x1="712.794" y1="145.205" x2="758.786" y2="69.8068" gradientUnits="userSpaceOnUse">
<stop stop-color="#2FEFFA"/>
<stop offset="1" stop-color="#535AB4"/>
</linearGradient>
<linearGradient id="paint71_linear_109_503" x1="700.561" y1="164.361" x2="709.565" y2="149.6" gradientUnits="userSpaceOnUse">
<stop stop-color="#2FEFFA"/>
<stop offset="1" stop-color="#535AB4"/>
</linearGradient>
<linearGradient id="paint72_linear_109_503" x1="728.436" y1="184.802" x2="737.302" y2="170.266" gradientUnits="userSpaceOnUse">
<stop stop-color="#2FEFFA"/>
<stop offset="1" stop-color="#535AB4"/>
</linearGradient>
<linearGradient id="paint73_linear_109_503" x1="661.756" y1="143.781" x2="669.003" y2="131.899" gradientUnits="userSpaceOnUse">
<stop stop-color="#2FEFFA"/>
<stop offset="1" stop-color="#535AB4"/>
</linearGradient>
<linearGradient id="paint74_linear_109_503" x1="691.528" y1="191.293" x2="700.151" y2="177.157" gradientUnits="userSpaceOnUse">
<stop stop-color="#2FEFFA"/>
<stop offset="1" stop-color="#535AB4"/>
</linearGradient>
<linearGradient id="paint75_linear_109_503" x1="657.358" y1="167.598" x2="662.863" y2="158.572" gradientUnits="userSpaceOnUse">
<stop stop-color="#2FEFFA"/>
<stop offset="1" stop-color="#535AB4"/>
</linearGradient>
<clipPath id="clip0_109_503">
<rect width="56.05" height="109.27" fill="white" transform="translate(216.214 538.897) rotate(-22.5167)"/>
</clipPath>
<clipPath id="clip1_109_503">
<rect width="90.2837" height="110.553" fill="white" transform="translate(745.027 501.409) rotate(31.9036)"/>
</clipPath>
<clipPath id="clip2_109_503">
<rect width="95.8807" height="119.399" fill="white" transform="translate(997.129 396.287) rotate(129.091)"/>
</clipPath>
<clipPath id="clip3_109_503">
<rect width="130.271" height="71.2018" fill="white" transform="translate(310 39.8723) rotate(-17.3612)"/>
</clipPath>
</defs>
</svg>
