<svg width="46" height="46" viewBox="0 0 46 46" fill="none" xmlns="http://www.w3.org/2000/svg">
<rect width="46" height="46" rx="23" fill="url(#paint0_linear_62_1703)"/>
<path d="M8.93 33V29.355H15.518C16.256 29.355 16.805 29.13 17.165 28.68C17.543 28.23 17.732 27.609 17.732 26.817V14.154H22.187V26.547C22.187 27.627 22.052 28.572 21.782 29.382C21.512 30.174 21.098 30.84 20.54 31.38C20 31.92 19.307 32.325 18.461 32.595C17.633 32.865 16.652 33 15.518 33H8.93ZM11.414 14.154H21.809V17.799H11.414V14.154ZM25.8965 27.087V23.442H30.1895C31.0535 23.442 31.7465 23.181 32.2685 22.659C32.7905 22.119 33.0515 21.417 33.0515 20.553C33.0515 19.725 32.7905 19.059 32.2685 18.555C31.7465 18.051 31.0535 17.799 30.1895 17.799H25.8965V14.154H30.2165C31.7105 14.154 33.0155 14.415 34.1315 14.937C35.2475 15.459 36.1115 16.206 36.7235 17.178C37.3355 18.132 37.6415 19.257 37.6415 20.553C37.6415 21.867 37.3355 23.019 36.7235 24.009C36.1115 24.981 35.2475 25.737 34.1315 26.277C33.0335 26.817 31.7285 27.087 30.2165 27.087H25.8965ZM22.7105 33V14.154H27.1655V33H22.7105Z" fill="white"/>
<defs>
<linearGradient id="paint0_linear_62_1703" x1="-9.18528e-08" y1="27.8105" x2="46" y2="27.8105" gradientUnits="userSpaceOnUse">
<stop stop-color="#2FEFFA"/>
<stop offset="0.510417" stop-color="#535AB4"/>
<stop offset="1" stop-color="#FF29C3"/>
</linearGradient>
</defs>
</svg>
