<svg width="160" height="32" viewBox="0 0 160 32" fill="none" xmlns="http://www.w3.org/2000/svg">
<path d="M23.8912 19.0934C23.5459 19.428 23.3872 19.912 23.4659 20.3867L24.6512 26.9467C24.7512 27.5027 24.5165 28.0654 24.0512 28.3867C23.5952 28.72 22.9885 28.76 22.4912 28.4934L16.5858 25.4134C16.3805 25.304 16.1525 25.2454 15.9192 25.2387H15.5578C15.4325 25.2574 15.3099 25.2974 15.1979 25.3587L9.29118 28.4534C8.99918 28.6 8.66852 28.652 8.34452 28.6C7.55518 28.4507 7.02852 27.6987 7.15785 26.9054L8.34452 20.3454C8.42318 19.8667 8.26452 19.38 7.91918 19.04L3.10452 14.3734C2.70185 13.9827 2.56185 13.396 2.74585 12.8667C2.92452 12.3387 3.38052 11.9534 3.93118 11.8667L10.5578 10.9054C11.0619 10.8534 11.5045 10.5467 11.7312 10.0934L14.6512 4.10671C14.7205 3.97337 14.8099 3.85071 14.9179 3.74671L15.0378 3.65337C15.1005 3.58404 15.1725 3.52671 15.2525 3.48004L15.3979 3.42671L15.6245 3.33337H16.1859C16.6872 3.38537 17.1285 3.68537 17.3592 4.13337L20.3179 10.0934C20.5312 10.5294 20.9459 10.832 21.4245 10.9054L28.0512 11.8667C28.6112 11.9467 29.0792 12.3334 29.2645 12.8667C29.4392 13.4014 29.2885 13.988 28.8779 14.3734L23.8912 19.0934Z" fill="url(#paint0_linear_62_1555)"/>
<path d="M55.8912 19.0934C55.5459 19.428 55.3872 19.912 55.4659 20.3867L56.6512 26.9467C56.7512 27.5027 56.5165 28.0654 56.0512 28.3867C55.5952 28.72 54.9885 28.76 54.4912 28.4934L48.5858 25.4134C48.3805 25.304 48.1525 25.2454 47.9192 25.2387H47.5578C47.4325 25.2574 47.3099 25.2974 47.1979 25.3587L41.2912 28.4534C40.9992 28.6 40.6685 28.652 40.3445 28.6C39.5552 28.4507 39.0285 27.6987 39.1579 26.9054L40.3445 20.3454C40.4232 19.8667 40.2645 19.38 39.9192 19.04L35.1045 14.3734C34.7019 13.9827 34.5619 13.396 34.7459 12.8667C34.9245 12.3387 35.3805 11.9534 35.9312 11.8667L42.5578 10.9054C43.0619 10.8534 43.5045 10.5467 43.7312 10.0934L46.6512 4.10671C46.7205 3.97337 46.8099 3.85071 46.9179 3.74671L47.0378 3.65337C47.1005 3.58404 47.1725 3.52671 47.2525 3.48004L47.3979 3.42671L47.6245 3.33337H48.1859C48.6872 3.38537 49.1285 3.68537 49.3592 4.13337L52.3179 10.0934C52.5312 10.5294 52.9459 10.832 53.4245 10.9054L60.0512 11.8667C60.6112 11.9467 61.0792 12.3334 61.2645 12.8667C61.4392 13.4014 61.2885 13.988 60.8779 14.3734L55.8912 19.0934Z" fill="url(#paint1_linear_62_1555)"/>
<path d="M87.8912 19.0934C87.5459 19.428 87.3872 19.912 87.4659 20.3867L88.6512 26.9467C88.7512 27.5027 88.5165 28.0654 88.0512 28.3867C87.5952 28.72 86.9885 28.76 86.4912 28.4934L80.5858 25.4134C80.3805 25.304 80.1525 25.2454 79.9192 25.2387H79.5578C79.4325 25.2574 79.3099 25.2974 79.1979 25.3587L73.2912 28.4534C72.9992 28.6 72.6685 28.652 72.3445 28.6C71.5552 28.4507 71.0285 27.6987 71.1579 26.9054L72.3445 20.3454C72.4232 19.8667 72.2645 19.38 71.9192 19.04L67.1045 14.3734C66.7019 13.9827 66.5619 13.396 66.7459 12.8667C66.9245 12.3387 67.3805 11.9534 67.9312 11.8667L74.5578 10.9054C75.0619 10.8534 75.5045 10.5467 75.7312 10.0934L78.6512 4.10671C78.7205 3.97337 78.8099 3.85071 78.9179 3.74671L79.0378 3.65337C79.1005 3.58404 79.1725 3.52671 79.2525 3.48004L79.3979 3.42671L79.6245 3.33337H80.1859C80.6872 3.38537 81.1285 3.68537 81.3592 4.13337L84.3179 10.0934C84.5312 10.5294 84.9459 10.832 85.4245 10.9054L92.0512 11.8667C92.6112 11.9467 93.0792 12.3334 93.2645 12.8667C93.4392 13.4014 93.2885 13.988 92.8779 14.3734L87.8912 19.0934Z" fill="url(#paint2_linear_62_1555)"/>
<path d="M119.891 19.0934C119.546 19.428 119.387 19.912 119.466 20.3867L120.651 26.9467C120.751 27.5027 120.517 28.0654 120.051 28.3867C119.595 28.72 118.989 28.76 118.491 28.4934L112.586 25.4134C112.381 25.304 112.153 25.2454 111.919 25.2387H111.558C111.433 25.2574 111.31 25.2974 111.198 25.3587L105.291 28.4534C104.999 28.6 104.669 28.652 104.345 28.6C103.555 28.4507 103.029 27.6987 103.158 26.9054L104.345 20.3454C104.423 19.8667 104.265 19.38 103.919 19.04L99.1045 14.3734C98.7019 13.9827 98.5619 13.396 98.7459 12.8667C98.9245 12.3387 99.3805 11.9534 99.9312 11.8667L106.558 10.9054C107.062 10.8534 107.505 10.5467 107.731 10.0934L110.651 4.10671C110.721 3.97337 110.81 3.85071 110.918 3.74671L111.038 3.65337C111.101 3.58404 111.173 3.52671 111.253 3.48004L111.398 3.42671L111.625 3.33337H112.186C112.687 3.38537 113.129 3.68537 113.359 4.13337L116.318 10.0934C116.531 10.5294 116.946 10.832 117.425 10.9054L124.051 11.8667C124.611 11.9467 125.079 12.3334 125.265 12.8667C125.439 13.4014 125.289 13.988 124.878 14.3734L119.891 19.0934Z" fill="url(#paint3_linear_62_1555)"/>
<path d="M151.891 19.0934C151.546 19.428 151.387 19.912 151.466 20.3867L152.651 26.9467C152.751 27.5027 152.517 28.0654 152.051 28.3867C151.595 28.72 150.989 28.76 150.491 28.4934L144.586 25.4134C144.381 25.304 144.153 25.2454 143.919 25.2387H143.558C143.433 25.2574 143.31 25.2974 143.198 25.3587L137.291 28.4534C136.999 28.6 136.669 28.652 136.345 28.6C135.555 28.4507 135.029 27.6987 135.158 26.9054L136.345 20.3454C136.423 19.8667 136.265 19.38 135.919 19.04L131.105 14.3734C130.702 13.9827 130.562 13.396 130.746 12.8667C130.925 12.3387 131.381 11.9534 131.931 11.8667L138.558 10.9054C139.062 10.8534 139.505 10.5467 139.731 10.0934L142.651 4.10671C142.721 3.97337 142.81 3.85071 142.918 3.74671L143.038 3.65337C143.101 3.58404 143.173 3.52671 143.253 3.48004L143.398 3.42671L143.625 3.33337H144.186C144.687 3.38537 145.129 3.68537 145.359 4.13337L148.318 10.0934C148.531 10.5294 148.946 10.832 149.425 10.9054L156.051 11.8667C156.611 11.9467 157.079 12.3334 157.265 12.8667C157.439 13.4014 157.289 13.988 156.878 14.3734L151.891 19.0934Z" fill="url(#paint4_linear_62_1555)"/>
<defs>
<linearGradient id="paint0_linear_62_1555" x1="2.66602" y1="18.6503" x2="29.3362" y2="18.6503" gradientUnits="userSpaceOnUse">
<stop stop-color="#2FEFFA"/>
<stop offset="0.510417" stop-color="#535AB4"/>
<stop offset="1" stop-color="#FF29C3"/>
</linearGradient>
<linearGradient id="paint1_linear_62_1555" x1="34.666" y1="18.6503" x2="61.3362" y2="18.6503" gradientUnits="userSpaceOnUse">
<stop stop-color="#2FEFFA"/>
<stop offset="0.510417" stop-color="#535AB4"/>
<stop offset="1" stop-color="#FF29C3"/>
</linearGradient>
<linearGradient id="paint2_linear_62_1555" x1="66.666" y1="18.6503" x2="93.3362" y2="18.6503" gradientUnits="userSpaceOnUse">
<stop stop-color="#2FEFFA"/>
<stop offset="0.510417" stop-color="#535AB4"/>
<stop offset="1" stop-color="#FF29C3"/>
</linearGradient>
<linearGradient id="paint3_linear_62_1555" x1="98.666" y1="18.6503" x2="125.336" y2="18.6503" gradientUnits="userSpaceOnUse">
<stop stop-color="#2FEFFA"/>
<stop offset="0.510417" stop-color="#535AB4"/>
<stop offset="1" stop-color="#FF29C3"/>
</linearGradient>
<linearGradient id="paint4_linear_62_1555" x1="130.666" y1="18.6503" x2="157.336" y2="18.6503" gradientUnits="userSpaceOnUse">
<stop stop-color="#2FEFFA"/>
<stop offset="0.510417" stop-color="#535AB4"/>
<stop offset="1" stop-color="#FF29C3"/>
</linearGradient>
</defs>
</svg>
