<svg width="30" height="28" viewBox="0 0 30 28" fill="none" xmlns="http://www.w3.org/2000/svg">
<path d="M14.9176 13.7698H15.2225C15.2687 13.7698 15.3061 13.8071 15.3061 13.8534V14.1464C15.3061 14.1926 15.2687 14.23 15.2225 14.23H14.9176C14.8714 14.23 14.834 14.1926 14.834 14.1464V13.8534C14.834 13.8071 14.8714 13.7698 14.9176 13.7698Z" fill="#001E36"/>
<path d="M14.9403 14.0927V13.8903C14.9403 13.8889 14.9409 13.8881 14.9423 13.8881C14.9456 13.8881 14.9488 13.8881 14.9533 13.8879C14.958 13.8877 14.9629 13.8877 14.9682 13.8876C14.9735 13.8874 14.9792 13.8874 14.9853 13.8872C14.9914 13.887 14.9973 13.887 15.0032 13.887C15.0194 13.887 15.0327 13.8889 15.0438 13.8931C15.0536 13.8964 15.0626 13.9019 15.0701 13.9092C15.0764 13.9155 15.0813 13.9232 15.0845 13.9316C15.0874 13.9399 15.089 13.9483 15.089 13.9572C15.089 13.9741 15.0851 13.9881 15.0772 13.9991C15.0693 14.0101 15.0583 14.0183 15.0455 14.0231C15.0322 14.028 15.0174 14.0298 15.0013 14.0298C14.9966 14.0298 14.9934 14.0298 14.9914 14.0296C14.9895 14.0294 14.9867 14.0294 14.983 14.0294V14.0925C14.9832 14.0939 14.9822 14.095 14.9808 14.0952H14.9427C14.9411 14.0952 14.9403 14.0945 14.9403 14.0927ZM14.9832 13.9261V13.9922C14.9859 13.9924 14.9885 13.9926 14.9909 13.9926H15.0013C15.0089 13.9926 15.0166 13.9914 15.0239 13.989C15.0302 13.9873 15.0357 13.9835 15.04 13.9786C15.0442 13.9737 15.0461 13.967 15.0461 13.9584C15.0463 13.9523 15.0447 13.9462 15.0416 13.9409C15.0383 13.9357 15.0335 13.9318 15.0278 13.9296C15.0206 13.9267 15.0127 13.9255 15.0046 13.9257C14.9995 13.9257 14.995 13.9257 14.9912 13.9259C14.9873 13.9257 14.9846 13.9259 14.9832 13.9261ZM15.2117 13.9802C15.2058 13.977 15.1995 13.9749 15.1928 13.9735C15.1856 13.9719 15.1783 13.9709 15.1708 13.9709C15.1669 13.9707 15.1627 13.9713 15.159 13.9723C15.1565 13.9729 15.1543 13.9743 15.1529 13.9763C15.1519 13.9778 15.1513 13.9798 15.1513 13.9816C15.1513 13.9833 15.1521 13.9851 15.1533 13.9867C15.1551 13.9888 15.1574 13.9906 15.16 13.992C15.1645 13.9943 15.1692 13.9965 15.174 13.9985C15.1846 14.002 15.1948 14.0069 15.2042 14.0128C15.2107 14.017 15.216 14.0225 15.2198 14.0292C15.2229 14.0355 15.2245 14.0423 15.2243 14.0494C15.2245 14.0587 15.2218 14.0679 15.2166 14.0756C15.2111 14.0834 15.2035 14.0895 15.1946 14.0931C15.185 14.0972 15.1732 14.0994 15.159 14.0994C15.15 14.0994 15.1411 14.0986 15.1323 14.0968C15.1254 14.0956 15.1185 14.0935 15.1122 14.0905C15.1108 14.0897 15.1098 14.0884 15.11 14.0868V14.0526C15.11 14.052 15.1102 14.0512 15.1108 14.0508C15.1114 14.0504 15.112 14.0506 15.1126 14.051C15.1203 14.0555 15.1283 14.0587 15.137 14.0606C15.1445 14.0626 15.1523 14.0636 15.1602 14.0636C15.1677 14.0636 15.173 14.0626 15.1765 14.0608C15.1797 14.0594 15.1818 14.0561 15.1818 14.0526C15.1818 14.0498 15.1803 14.0473 15.1771 14.0447C15.174 14.0421 15.1675 14.0392 15.1578 14.0355C15.1478 14.0319 15.1386 14.0272 15.1299 14.0213C15.1238 14.017 15.1187 14.0113 15.115 14.0046C15.1118 13.9983 15.1102 13.9914 15.1104 13.9845C15.1104 13.9761 15.1128 13.968 15.1171 13.9607C15.122 13.9528 15.1293 13.9466 15.1378 13.9426C15.147 13.9379 15.1586 13.9357 15.1726 13.9357C15.1806 13.9357 15.1889 13.9363 15.197 13.9375C15.2029 13.9383 15.2086 13.9399 15.2139 13.942C15.2147 13.9422 15.2155 13.943 15.2159 13.9438C15.216 13.9446 15.2162 13.9454 15.2162 13.9462V13.9782C15.2162 13.979 15.2159 13.9798 15.2153 13.9802C15.2135 13.9806 15.2125 13.9806 15.2117 13.9802Z" fill="#31A8FF"/>
<g clip-path="url(#clip0_151_410)">
<path d="M15.2353 13.7852H14.9201C14.9029 13.7852 14.8864 13.792 14.8743 13.8041C14.8621 13.8163 14.8553 13.8328 14.8553 13.85V14.1652C14.8553 14.1824 14.8621 14.1989 14.8743 14.211C14.8864 14.2232 14.9029 14.23 14.9201 14.23H15.2353C15.2525 14.23 15.269 14.2232 15.2812 14.211C15.2933 14.1989 15.3002 14.1824 15.3002 14.1652V13.85C15.3002 13.8328 15.2933 13.8163 15.2812 13.8041C15.269 13.792 15.2525 13.7852 15.2353 13.7852Z" fill="#2E3139"/>
<path d="M15.2353 13.8046C15.2474 13.8046 15.2589 13.8094 15.2674 13.8179C15.2759 13.8264 15.2807 13.838 15.2807 13.85V14.1652C15.2807 14.1772 15.2759 14.1888 15.2674 14.1973C15.2589 14.2058 15.2473 14.2106 15.2353 14.2106H14.9201C14.9081 14.2106 14.8966 14.2058 14.888 14.1973C14.8795 14.1888 14.8748 14.1772 14.8748 14.1652V13.85C14.8748 13.838 14.8795 13.8264 14.8881 13.8179C14.8966 13.8094 14.9081 13.8046 14.9202 13.8046H15.2353L15.2353 13.8046ZM15.2353 13.7852H14.9201C14.9029 13.7852 14.8864 13.792 14.8743 13.8041C14.8621 13.8163 14.8553 13.8328 14.8553 13.85V14.1652C14.8553 14.1824 14.8621 14.1989 14.8743 14.211C14.8864 14.2232 14.9029 14.23 14.9201 14.23H15.2353C15.2525 14.23 15.269 14.2232 15.2812 14.211C15.2933 14.1989 15.3002 14.1824 15.3002 14.1652V13.85C15.3002 13.8328 15.2933 13.8163 15.2812 13.8041C15.269 13.792 15.2525 13.7852 15.2353 13.7852Z" fill="#2D2F38"/>
<path d="M15.0223 14.1739C15.037 14.1739 15.0511 14.168 15.0615 14.1576C15.0719 14.1472 15.0777 14.1331 15.0778 14.1184V14.063H15.0223C15.0076 14.063 14.9935 14.0688 14.9831 14.0792C14.9727 14.0896 14.9669 14.1037 14.9669 14.1184C14.9669 14.1332 14.9727 14.1473 14.9831 14.1577C14.9935 14.1681 15.0076 14.1739 15.0223 14.1739V14.1739Z" fill="#0ACF83"/>
<path d="M14.9668 14.0076C14.9668 14.0003 14.9682 13.9931 14.971 13.9864C14.9738 13.9796 14.9779 13.9735 14.9831 13.9684C14.9882 13.9632 14.9943 13.9591 15.001 13.9564C15.0078 13.9536 15.015 13.9521 15.0223 13.9521H15.0777V14.063H15.0223C15.015 14.063 15.0078 14.0616 15.001 14.0588C14.9943 14.056 14.9882 14.0519 14.9831 14.0468C14.9779 14.0417 14.9738 14.0355 14.971 14.0288C14.9682 14.0221 14.9668 14.0149 14.9668 14.0076Z" fill="#A259FF"/>
<path d="M14.9668 13.8968C14.9668 13.8895 14.9682 13.8823 14.971 13.8755C14.9738 13.8688 14.9779 13.8627 14.9831 13.8575C14.9882 13.8524 14.9943 13.8483 15.001 13.8455C15.0078 13.8427 15.015 13.8413 15.0223 13.8413H15.0777V13.9522H15.0223C15.015 13.9522 15.0078 13.9508 15.001 13.948C14.9943 13.9452 14.9882 13.9411 14.983 13.936C14.9779 13.9308 14.9738 13.9247 14.971 13.918C14.9682 13.9112 14.9668 13.904 14.9668 13.8967L14.9668 13.8968Z" fill="#F24E1E"/>
<path d="M15.0778 13.8416H15.1332C15.1405 13.8416 15.1477 13.843 15.1544 13.8458C15.1611 13.8486 15.1673 13.8527 15.1724 13.8578C15.1776 13.863 15.1816 13.8691 15.1844 13.8758C15.1872 13.8825 15.1886 13.8897 15.1886 13.897C15.1886 13.9043 15.1872 13.9115 15.1844 13.9182C15.1816 13.925 15.1776 13.9311 15.1724 13.9362C15.1673 13.9414 15.1611 13.9455 15.1544 13.9482C15.1477 13.951 15.1405 13.9525 15.1332 13.9525H15.0778V13.8416Z" fill="#FF7262"/>
<path d="M15.1886 14.0076C15.1886 14.0223 15.1828 14.0364 15.1724 14.0468C15.162 14.0572 15.1479 14.063 15.1332 14.063C15.1185 14.063 15.1044 14.0572 15.094 14.0468C15.0836 14.0364 15.0778 14.0223 15.0778 14.0076C15.0778 13.9929 15.0836 13.9788 15.094 13.9684C15.1044 13.958 15.1185 13.9521 15.1332 13.9521C15.1479 13.9521 15.162 13.958 15.1724 13.9684C15.1828 13.9788 15.1886 13.9929 15.1886 14.0076Z" fill="#1ABCFE"/>
</g>
<g clip-path="url(#clip1_151_410)">
<path d="M13.8788 12.2051H16.2566C16.6171 12.2051 16.9086 12.4966 16.9086 12.8571V15.1428C16.9086 15.5033 16.6171 15.7948 16.2566 15.7948H13.8788C13.5183 15.7948 13.2268 15.5033 13.2268 15.1428V12.8571C13.2268 12.4966 13.5183 12.2051 13.8788 12.2051Z" fill="#470137"/>
<path d="M15.1628 13.1487L14.7026 13.908L15.1935 14.7134C15.1966 14.7196 15.1981 14.7257 15.1966 14.7318C15.195 14.738 15.1889 14.7334 15.1797 14.7349H14.8284C14.8038 14.7349 14.787 14.7334 14.7762 14.718C14.744 14.6536 14.7103 14.5907 14.678 14.5263C14.6458 14.4634 14.6105 14.3989 14.5737 14.333C14.5369 14.267 14.5001 14.201 14.4633 14.1335H14.4602C14.428 14.1995 14.3927 14.2655 14.3574 14.3314C14.3221 14.3974 14.2868 14.4634 14.2531 14.5278C14.2178 14.5922 14.1825 14.6582 14.1472 14.7211C14.1411 14.7364 14.1288 14.738 14.112 14.738H13.7745C13.7683 14.738 13.7637 14.741 13.7637 14.7334C13.7622 14.7272 13.7637 14.7211 13.7668 14.7165L14.2439 13.9341L13.7791 13.1471C13.7745 13.141 13.7729 13.1349 13.776 13.1318C13.7791 13.1272 13.7852 13.1256 13.7913 13.1256H14.1396C14.1472 13.1256 14.1549 13.1272 14.1611 13.1287C14.1672 13.1318 14.1718 13.1364 14.1764 13.1425C14.2055 13.2085 14.2393 13.2745 14.2746 13.3404C14.3114 13.4064 14.3467 13.4708 14.385 13.5352C14.4218 13.5997 14.4556 13.6641 14.4878 13.7301H14.4909C14.5231 13.6626 14.5568 13.5966 14.5906 13.5322C14.6243 13.4677 14.6596 13.4033 14.6949 13.3389C14.7302 13.2745 14.7639 13.2085 14.7977 13.1456C14.7992 13.1395 14.8023 13.1333 14.8069 13.1302C14.813 13.1272 14.8192 13.1256 14.8268 13.1272H15.1505C15.1582 13.1256 15.1659 13.1302 15.1674 13.1379C15.1689 13.1395 15.1659 13.1456 15.1628 13.1487ZM15.8715 14.7671C15.758 14.7686 15.6445 14.7456 15.5417 14.6981C15.4451 14.6536 15.3653 14.58 15.3101 14.4894C15.2533 14.3959 15.2257 14.2793 15.2257 14.1397C15.2242 14.0262 15.2533 13.9142 15.3101 13.816C15.3684 13.7163 15.4527 13.6334 15.554 13.5782C15.6614 13.5184 15.7902 13.4892 15.9421 13.4892C15.9498 13.4892 15.9605 13.4892 15.9743 13.4908C15.9881 13.4923 16.0035 13.4923 16.0219 13.4938V13.0091C16.0219 12.9983 16.0265 12.9922 16.0372 12.9922H16.3486C16.3563 12.9906 16.3625 12.9968 16.364 13.0029V14.4664C16.364 14.494 16.3655 14.5247 16.3671 14.5585C16.3701 14.5907 16.3717 14.6214 16.3732 14.6475C16.3732 14.6582 16.3686 14.6674 16.3579 14.672C16.2781 14.7057 16.1937 14.7303 16.1078 14.7456C16.0296 14.7594 15.9513 14.7671 15.8715 14.7671ZM16.0219 14.4603V13.7853C16.0081 13.7822 15.9943 13.7792 15.9805 13.7776C15.9636 13.7761 15.9467 13.7746 15.9298 13.7746C15.87 13.7746 15.8102 13.7868 15.7565 13.8144C15.7043 13.8405 15.6598 13.8789 15.6261 13.928C15.5923 13.9771 15.5755 14.043 15.5755 14.1228C15.5739 14.1765 15.5831 14.2302 15.6016 14.2808C15.6169 14.3222 15.6399 14.359 15.6706 14.3897C15.6997 14.4173 15.735 14.4388 15.7749 14.4511C15.8163 14.4649 15.8593 14.471 15.9022 14.471C15.9252 14.471 15.9467 14.4695 15.9667 14.468C15.9866 14.4695 16.0035 14.4664 16.0219 14.4603Z" fill="#FF61F6"/>
</g>
<g clip-path="url(#clip2_151_410)">
<path d="M5.80343 0H24.3504C27.1624 0 29.4359 2.2735 29.4359 5.08547V22.9145C29.4359 25.7265 27.1624 28 24.3504 28H5.80343C2.99146 28 0.717957 25.7265 0.717957 22.9145V5.08547C0.717957 2.2735 2.99146 0 5.80343 0Z" fill="#001E36"/>
<path d="M7.1795 19.6359V7.32305C7.1795 7.23929 7.2154 7.19142 7.29916 7.19142C7.50258 7.19142 7.69403 7.19142 7.96925 7.17946C8.25643 7.16749 8.55557 7.16749 8.87865 7.15553C9.20173 7.14356 9.54874 7.14356 9.91968 7.13159C10.2906 7.11963 10.6496 7.11963 11.0086 7.11963C11.9898 7.11963 12.8034 7.23929 13.4735 7.49057C14.0718 7.69399 14.6222 8.02903 15.0769 8.47177C15.4598 8.85467 15.759 9.32134 15.9504 9.83587C16.1299 10.3384 16.2257 10.853 16.2257 11.3914C16.2257 12.4205 15.9863 13.2701 15.5077 13.9401C15.0291 14.6102 14.359 15.1128 13.5812 15.4C12.7675 15.6991 11.8701 15.8068 10.8889 15.8068C10.6017 15.8068 10.4103 15.8068 10.2906 15.7948C10.171 15.7829 10.0034 15.7829 9.77608 15.7829V19.6239C9.78805 19.7077 9.72822 19.7795 9.64446 19.7914H7.32309C7.22737 19.7914 7.1795 19.7436 7.1795 19.6359ZM9.78805 9.50083V13.5213C9.95557 13.5333 10.1111 13.5453 10.2547 13.5453H10.8889C11.3556 13.5453 11.8222 13.4735 12.265 13.3299C12.6479 13.2222 12.9829 12.9948 13.2462 12.6957C13.4975 12.3966 13.6171 11.9897 13.6171 11.4632C13.6291 11.0923 13.5333 10.7213 13.3419 10.3983C13.1385 10.0872 12.8513 9.84783 12.5043 9.71621C12.0616 9.53672 11.5829 9.46493 11.0923 9.47689C10.7812 9.47689 10.506 9.47689 10.2786 9.48886C10.0393 9.47689 9.87181 9.48886 9.78805 9.50083ZM23.6923 12.7914C23.3333 12.6 22.9504 12.4683 22.5436 12.3846C22.1009 12.2889 21.6581 12.229 21.2034 12.229C20.9641 12.2171 20.7128 12.253 20.4855 12.3128C20.3299 12.3487 20.1983 12.4324 20.1145 12.5521C20.0547 12.6478 20.0188 12.7675 20.0188 12.8752C20.0188 12.9829 20.0667 13.0906 20.1385 13.1863C20.2462 13.3179 20.3898 13.4256 20.5453 13.5094C20.8205 13.653 21.1077 13.7846 21.3949 13.9042C22.041 14.1196 22.6633 14.4188 23.2376 14.7777C23.6325 15.029 23.9556 15.3641 24.1829 15.7709C24.3744 16.1538 24.4701 16.5726 24.4581 17.0034C24.4701 17.5658 24.3026 18.1282 23.9915 18.5948C23.6564 19.0735 23.1898 19.4444 22.6513 19.6598C22.065 19.9111 21.347 20.0427 20.4855 20.0427C19.9351 20.0427 19.3966 19.9948 18.8581 19.8872C18.4393 19.8154 18.0205 19.6837 17.6376 19.5042C17.5539 19.4564 17.494 19.3726 17.506 19.2769V17.1948C17.506 17.1589 17.518 17.1111 17.5539 17.0872C17.5898 17.0632 17.6257 17.0752 17.6616 17.0991C18.1282 17.3743 18.6188 17.5658 19.1453 17.6854C19.6 17.8051 20.0786 17.8649 20.5573 17.8649C21.012 17.8649 21.3351 17.8051 21.5504 17.6974C21.7419 17.6136 21.8735 17.4102 21.8735 17.1948C21.8735 17.0273 21.7778 16.8718 21.5863 16.7162C21.3949 16.5607 21 16.3812 20.4137 16.1538C19.8034 15.9384 19.241 15.6513 18.7145 15.2923C18.3436 15.029 18.0325 14.682 17.8051 14.2752C17.6137 13.8923 17.518 13.4735 17.5299 13.0547C17.5299 12.5401 17.6735 12.0495 17.9368 11.6068C18.2359 11.1282 18.6786 10.7453 19.1932 10.506C19.7556 10.2188 20.4616 10.0872 21.3111 10.0872C21.8017 10.0872 22.3043 10.123 22.7949 10.1948C23.1539 10.2427 23.5009 10.3384 23.8239 10.4701C23.8718 10.482 23.9197 10.5299 23.9436 10.5777C23.9556 10.6256 23.9675 10.6735 23.9675 10.7213V12.6718C23.9675 12.7196 23.9436 12.7675 23.9077 12.7914C23.8 12.8154 23.7402 12.8154 23.6923 12.7914Z" fill="#31A8FF"/>
</g>
<defs>
<clipPath id="clip0_151_410">
<rect width="0.444883" height="0.444883" fill="white" transform="translate(14.8553 13.7852)"/>
</clipPath>
<clipPath id="clip1_151_410">
<rect width="3.68179" height="3.58974" fill="white" transform="translate(13.2268 12.2051)"/>
</clipPath>
<clipPath id="clip2_151_410">
<rect width="28.7179" height="28" fill="white" transform="translate(0.717957)"/>
</clipPath>
</defs>
</svg>
