<svg width="30" height="28" viewBox="0 0 30 28" fill="none" xmlns="http://www.w3.org/2000/svg">
<path d="M14.608 13.7698H14.9129C14.9591 13.7698 14.9964 13.8071 14.9964 13.8534V14.1464C14.9964 14.1926 14.9591 14.23 14.9129 14.23H14.608C14.5618 14.23 14.5244 14.1926 14.5244 14.1464V13.8534C14.5244 13.8071 14.5618 13.7698 14.608 13.7698Z" fill="#001E36"/>
<path d="M14.6306 14.0927V13.8903C14.6306 13.8889 14.6312 13.8881 14.6326 13.8881C14.6359 13.8881 14.6391 13.8881 14.6436 13.8879C14.6483 13.8877 14.6532 13.8877 14.6585 13.8876C14.6639 13.8874 14.6696 13.8874 14.6757 13.8872C14.6818 13.887 14.6877 13.887 14.6936 13.887C14.7097 13.887 14.7231 13.8889 14.7341 13.8931C14.7439 13.8964 14.7529 13.9019 14.7604 13.9092C14.7667 13.9155 14.7716 13.9232 14.7748 13.9316C14.7777 13.9399 14.7793 13.9483 14.7793 13.9572C14.7793 13.9741 14.7754 13.9881 14.7675 13.9991C14.7596 14.0101 14.7486 14.0183 14.7358 14.0231C14.7225 14.028 14.7077 14.0298 14.6916 14.0298C14.6869 14.0298 14.6837 14.0298 14.6818 14.0296C14.6798 14.0294 14.677 14.0294 14.6733 14.0294V14.0925C14.6735 14.0939 14.6725 14.095 14.6711 14.0952H14.633C14.6314 14.0952 14.6306 14.0945 14.6306 14.0927ZM14.6735 13.9261V13.9922C14.6762 13.9924 14.6788 13.9926 14.6812 13.9926H14.6916C14.6993 13.9926 14.7069 13.9914 14.7142 13.989C14.7205 13.9873 14.726 13.9835 14.7303 13.9786C14.7345 13.9737 14.7364 13.967 14.7364 13.9584C14.7366 13.9523 14.7351 13.9462 14.7319 13.9409C14.7286 13.9357 14.7238 13.9318 14.7181 13.9296C14.7109 13.9267 14.703 13.9255 14.6949 13.9257C14.6898 13.9257 14.6853 13.9257 14.6816 13.9259C14.6776 13.9257 14.6749 13.9259 14.6735 13.9261ZM14.902 13.9802C14.8961 13.977 14.8898 13.9749 14.8831 13.9735C14.8759 13.9719 14.8686 13.9709 14.8611 13.9709C14.8572 13.9707 14.8531 13.9713 14.8493 13.9723C14.8468 13.9729 14.8446 13.9743 14.8432 13.9763C14.8422 13.9778 14.8416 13.9798 14.8416 13.9816C14.8416 13.9833 14.8424 13.9851 14.8436 13.9867C14.8454 13.9888 14.8477 13.9906 14.8503 13.992C14.8548 13.9943 14.8595 13.9965 14.8643 13.9985C14.8749 14.002 14.8851 14.0069 14.8946 14.0128C14.901 14.017 14.9064 14.0225 14.9101 14.0292C14.9132 14.0355 14.9148 14.0423 14.9146 14.0494C14.9148 14.0587 14.9121 14.0679 14.9069 14.0756C14.9014 14.0834 14.8938 14.0895 14.8849 14.0931C14.8753 14.0972 14.8635 14.0994 14.8493 14.0994C14.8403 14.0994 14.8314 14.0986 14.8226 14.0968C14.8157 14.0956 14.8088 14.0935 14.8025 14.0905C14.8011 14.0897 14.8002 14.0884 14.8003 14.0868V14.0526C14.8003 14.052 14.8005 14.0512 14.8011 14.0508C14.8017 14.0504 14.8023 14.0506 14.8029 14.051C14.8106 14.0555 14.8186 14.0587 14.8273 14.0606C14.8348 14.0626 14.8426 14.0636 14.8505 14.0636C14.858 14.0636 14.8633 14.0626 14.8668 14.0608C14.87 14.0594 14.8721 14.0561 14.8721 14.0526C14.8721 14.0498 14.8706 14.0473 14.8674 14.0447C14.8643 14.0421 14.8578 14.0392 14.8481 14.0355C14.8381 14.0319 14.8289 14.0272 14.8202 14.0213C14.8141 14.017 14.809 14.0113 14.8053 14.0046C14.8021 13.9983 14.8005 13.9914 14.8007 13.9845C14.8007 13.9761 14.8031 13.968 14.8074 13.9607C14.8123 13.9528 14.8196 13.9466 14.8281 13.9426C14.8373 13.9379 14.8489 13.9357 14.8629 13.9357C14.871 13.9357 14.8792 13.9363 14.8873 13.9375C14.8932 13.9383 14.8989 13.9399 14.9042 13.942C14.905 13.9422 14.9058 13.943 14.9062 13.9438C14.9064 13.9446 14.9066 13.9454 14.9066 13.9462V13.9782C14.9066 13.979 14.9062 13.9798 14.9056 13.9802C14.9038 13.9806 14.9028 13.9806 14.902 13.9802Z" fill="#31A8FF"/>
<g clip-path="url(#clip0_151_444)">
<path d="M14.9258 13.7852H14.6106C14.5934 13.7852 14.5769 13.792 14.5647 13.8041C14.5525 13.8163 14.5457 13.8328 14.5457 13.85V14.1652C14.5457 14.1824 14.5525 14.1989 14.5647 14.211C14.5769 14.2232 14.5934 14.23 14.6106 14.23H14.9258C14.943 14.23 14.9594 14.2232 14.9716 14.211C14.9838 14.1989 14.9906 14.1824 14.9906 14.1652V13.85C14.9906 13.8328 14.9838 13.8163 14.9716 13.8041C14.9594 13.792 14.943 13.7852 14.9258 13.7852Z" fill="#2E3139"/>
<path d="M14.9258 13.8046C14.9378 13.8046 14.9493 13.8094 14.9579 13.8179C14.9664 13.8264 14.9711 13.838 14.9711 13.85V14.1652C14.9711 14.1772 14.9664 14.1888 14.9578 14.1973C14.9493 14.2058 14.9378 14.2106 14.9257 14.2106H14.6106C14.5985 14.2106 14.587 14.2058 14.5785 14.1973C14.57 14.1888 14.5652 14.1772 14.5652 14.1652V13.85C14.5652 13.838 14.57 13.8264 14.5785 13.8179C14.587 13.8094 14.5986 13.8046 14.6106 13.8046H14.9258L14.9258 13.8046ZM14.9258 13.7852H14.6106C14.5934 13.7852 14.5769 13.792 14.5647 13.8041C14.5525 13.8163 14.5457 13.8328 14.5457 13.85V14.1652C14.5457 14.1824 14.5525 14.1989 14.5647 14.211C14.5769 14.2232 14.5934 14.23 14.6106 14.23H14.9258C14.943 14.23 14.9594 14.2232 14.9716 14.211C14.9838 14.1989 14.9906 14.1824 14.9906 14.1652V13.85C14.9906 13.8328 14.9838 13.8163 14.9716 13.8041C14.9594 13.792 14.943 13.7852 14.9258 13.7852Z" fill="#2D2F38"/>
<path d="M14.7127 14.1739C14.7274 14.1739 14.7415 14.168 14.7519 14.1576C14.7623 14.1472 14.7682 14.1331 14.7682 14.1184V14.063H14.7127C14.698 14.063 14.6839 14.0688 14.6735 14.0792C14.6631 14.0896 14.6573 14.1037 14.6573 14.1184C14.6573 14.1332 14.6631 14.1473 14.6735 14.1577C14.6839 14.1681 14.698 14.1739 14.7127 14.1739V14.1739Z" fill="#0ACF83"/>
<path d="M14.6572 14.0076C14.6572 14.0003 14.6587 13.9931 14.6615 13.9864C14.6643 13.9796 14.6683 13.9735 14.6735 13.9684C14.6786 13.9632 14.6847 13.9591 14.6915 13.9564C14.6982 13.9536 14.7054 13.9521 14.7127 13.9521H14.7681V14.063H14.7127C14.7054 14.063 14.6982 14.0616 14.6915 14.0588C14.6847 14.056 14.6786 14.0519 14.6735 14.0468C14.6683 14.0417 14.6642 14.0355 14.6615 14.0288C14.6587 14.0221 14.6572 14.0149 14.6572 14.0076Z" fill="#A259FF"/>
<path d="M14.6572 13.8968C14.6572 13.8895 14.6587 13.8823 14.6615 13.8755C14.6643 13.8688 14.6683 13.8627 14.6735 13.8575C14.6786 13.8524 14.6847 13.8483 14.6915 13.8455C14.6982 13.8427 14.7054 13.8413 14.7127 13.8413H14.7681V13.9522H14.7127C14.7054 13.9522 14.6982 13.9508 14.6915 13.948C14.6847 13.9452 14.6786 13.9411 14.6735 13.936C14.6683 13.9308 14.6642 13.9247 14.6614 13.918C14.6587 13.9112 14.6572 13.904 14.6572 13.8967L14.6572 13.8968Z" fill="#F24E1E"/>
<path d="M14.7682 13.8416H14.8236C14.8309 13.8416 14.8381 13.843 14.8448 13.8458C14.8516 13.8486 14.8577 13.8527 14.8628 13.8578C14.868 13.863 14.8721 13.8691 14.8749 13.8758C14.8776 13.8825 14.8791 13.8897 14.8791 13.897C14.8791 13.9043 14.8776 13.9115 14.8749 13.9182C14.8721 13.925 14.868 13.9311 14.8628 13.9362C14.8577 13.9414 14.8516 13.9455 14.8448 13.9482C14.8381 13.951 14.8309 13.9525 14.8236 13.9525H14.7682V13.8416Z" fill="#FF7262"/>
<path d="M14.8791 14.0076C14.8791 14.0223 14.8732 14.0364 14.8628 14.0468C14.8524 14.0572 14.8383 14.063 14.8236 14.063C14.8089 14.063 14.7948 14.0572 14.7844 14.0468C14.774 14.0364 14.7682 14.0223 14.7682 14.0076C14.7682 13.9929 14.774 13.9788 14.7844 13.9684C14.7948 13.958 14.8089 13.9521 14.8236 13.9521C14.8383 13.9521 14.8524 13.958 14.8628 13.9684C14.8732 13.9788 14.8791 13.9929 14.8791 14.0076Z" fill="#1ABCFE"/>
</g>
<g clip-path="url(#clip1_151_444)">
<path d="M13.5692 12.2051H15.947C16.3075 12.2051 16.599 12.4966 16.599 12.8571V15.1428C16.599 15.5033 16.3075 15.7948 15.947 15.7948H13.5692C13.2087 15.7948 12.9172 15.5033 12.9172 15.1428V12.8571C12.9172 12.4966 13.2087 12.2051 13.5692 12.2051Z" fill="#470137"/>
<path d="M14.8532 13.1487L14.3929 13.908L14.8839 14.7134C14.8869 14.7196 14.8885 14.7257 14.8869 14.7318C14.8854 14.738 14.8793 14.7334 14.87 14.7349H14.5187C14.4942 14.7349 14.4773 14.7334 14.4666 14.718C14.4344 14.6536 14.4006 14.5907 14.3684 14.5263C14.3362 14.4634 14.3009 14.3989 14.2641 14.333C14.2273 14.267 14.1905 14.201 14.1536 14.1335H14.1506C14.1183 14.1995 14.0831 14.2655 14.0478 14.3314C14.0125 14.3974 13.9772 14.4634 13.9435 14.5278C13.9082 14.5922 13.8729 14.6582 13.8376 14.7211C13.8315 14.7364 13.8192 14.738 13.8023 14.738H13.4648C13.4587 14.738 13.4541 14.741 13.4541 14.7334C13.4526 14.7272 13.4541 14.7211 13.4572 14.7165L13.9343 13.9341L13.4694 13.1471C13.4648 13.141 13.4633 13.1349 13.4664 13.1318C13.4694 13.1272 13.4756 13.1256 13.4817 13.1256H13.8299C13.8376 13.1256 13.8453 13.1272 13.8514 13.1287C13.8576 13.1318 13.8622 13.1364 13.8668 13.1425C13.8959 13.2085 13.9297 13.2745 13.9649 13.3404C14.0018 13.4064 14.037 13.4708 14.0754 13.5352C14.1122 13.5997 14.146 13.6641 14.1782 13.7301H14.1812C14.2135 13.6626 14.2472 13.5966 14.281 13.5322C14.3147 13.4677 14.35 13.4033 14.3853 13.3389C14.4206 13.2745 14.4543 13.2085 14.4881 13.1456C14.4896 13.1395 14.4927 13.1333 14.4973 13.1302C14.5034 13.1272 14.5095 13.1256 14.5172 13.1272H14.8409C14.8486 13.1256 14.8562 13.1302 14.8578 13.1379C14.8593 13.1395 14.8562 13.1456 14.8532 13.1487ZM15.5619 14.7671C15.4484 14.7686 15.3349 14.7456 15.2321 14.6981C15.1354 14.6536 15.0557 14.58 15.0004 14.4894C14.9437 14.3959 14.9161 14.2793 14.9161 14.1397C14.9145 14.0262 14.9437 13.9142 15.0004 13.816C15.0587 13.7163 15.1431 13.6334 15.2444 13.5782C15.3517 13.5184 15.4806 13.4892 15.6325 13.4892C15.6402 13.4892 15.6509 13.4892 15.6647 13.4908C15.6785 13.4923 15.6938 13.4923 15.7123 13.4938V13.0091C15.7123 12.9983 15.7169 12.9922 15.7276 12.9922H16.039C16.0467 12.9906 16.0528 12.9968 16.0544 13.0029V14.4664C16.0544 14.494 16.0559 14.5247 16.0574 14.5585C16.0605 14.5907 16.062 14.6214 16.0636 14.6475C16.0636 14.6582 16.059 14.6674 16.0482 14.672C15.9684 14.7057 15.8841 14.7303 15.7982 14.7456C15.7199 14.7594 15.6417 14.7671 15.5619 14.7671ZM15.7123 14.4603V13.7853C15.6984 13.7822 15.6846 13.7792 15.6708 13.7776C15.654 13.7761 15.6371 13.7746 15.6202 13.7746C15.5604 13.7746 15.5006 13.7868 15.4469 13.8144C15.3947 13.8405 15.3502 13.8789 15.3165 13.928C15.2827 13.9771 15.2658 14.043 15.2658 14.1228C15.2643 14.1765 15.2735 14.2302 15.2919 14.2808C15.3073 14.3222 15.3303 14.359 15.361 14.3897C15.3901 14.4173 15.4254 14.4388 15.4653 14.4511C15.5067 14.4649 15.5496 14.471 15.5926 14.471C15.6156 14.471 15.6371 14.4695 15.657 14.468C15.677 14.4695 15.6938 14.4664 15.7123 14.4603Z" fill="#FF61F6"/>
</g>
<g clip-path="url(#clip2_151_444)">
<path d="M5.52138 0H24.0684C26.8804 0 29.1539 2.2735 29.1539 5.08547V22.9145C29.1539 25.7265 26.8804 28 24.0684 28H5.52138C2.70942 28 0.435913 25.7265 0.435913 22.9145V5.08547C0.435913 2.2735 2.70942 0 5.52138 0Z" fill="#330000"/>
<path d="M14.3163 16.7521H9.86498L8.95558 19.5641C8.93165 19.6717 8.83592 19.7435 8.72823 19.7316H6.47866C6.34703 19.7316 6.31114 19.6598 6.34703 19.5162L10.2 8.42388C10.2359 8.30422 10.2718 8.1726 10.3197 8.02901C10.3675 7.77773 10.3915 7.51448 10.3915 7.25123C10.3795 7.1914 10.4274 7.13157 10.4872 7.11961H13.5863C13.6821 7.11961 13.7299 7.1555 13.7419 7.21533L18.1094 19.5401C18.1453 19.6717 18.1094 19.7316 17.9898 19.7316H15.4889C15.4052 19.7435 15.3214 19.6837 15.2975 19.5999L14.3163 16.7521ZM10.559 14.323H13.5983C13.5265 14.0717 13.4308 13.7726 13.3231 13.4615C13.2154 13.1384 13.1077 12.7914 13 12.4324C12.8804 12.0615 12.7727 11.7025 12.653 11.3316C12.5334 10.9606 12.4257 10.6136 12.3299 10.2666C12.2342 9.93157 12.1504 9.62046 12.0667 9.33328H12.0428C11.9351 9.84781 11.8034 10.3623 11.6359 10.8769C11.4564 11.4512 11.2769 12.0495 11.0855 12.6478C10.918 13.2581 10.7385 13.8205 10.559 14.323ZM20.7778 9.21362C20.3829 9.22559 20 9.07003 19.7128 8.79482C19.4376 8.49568 19.294 8.1008 19.306 7.69397C19.294 7.28713 19.4496 6.90422 19.7368 6.62901C20.024 6.35379 20.4069 6.21021 20.8017 6.21021C21.2684 6.21021 21.6274 6.35379 21.8906 6.62901C22.1539 6.91619 22.2975 7.29909 22.2855 7.69397C22.2975 8.1008 22.1539 8.49568 21.8667 8.79482C21.5915 9.082 21.1846 9.23756 20.7778 9.21362ZM19.4376 19.5999V10.3863C19.4376 10.2666 19.4855 10.2188 19.5932 10.2188H21.9624C22.0701 10.2188 22.118 10.2786 22.118 10.3863V19.5999C22.118 19.7316 22.0701 19.7914 21.9624 19.7914H19.6171C19.4975 19.7914 19.4376 19.7196 19.4376 19.5999Z" fill="#FF9A00"/>
</g>
<defs>
<clipPath id="clip0_151_444">
<rect width="0.444883" height="0.444883" fill="white" transform="translate(14.5457 13.7852)"/>
</clipPath>
<clipPath id="clip1_151_444">
<rect width="3.68179" height="3.58974" fill="white" transform="translate(12.9172 12.2051)"/>
</clipPath>
<clipPath id="clip2_151_444">
<rect width="28.7179" height="28" fill="white" transform="translate(0.435913)"/>
</clipPath>
</defs>
</svg>
