<svg width="29" height="28" viewBox="0 0 29 28" fill="none" xmlns="http://www.w3.org/2000/svg">
<path d="M13.1885 12.2051H15.5663C15.9268 12.2051 16.2183 12.4966 16.2183 12.8571V15.1428C16.2183 15.5033 15.9268 15.7948 15.5663 15.7948H13.1885C12.828 15.7948 12.5365 15.5033 12.5365 15.1428V12.8571C12.5365 12.4966 12.828 12.2051 13.1885 12.2051Z" fill="#001E36"/>
<path d="M13.3649 14.7226V13.144C13.3649 13.1333 13.3695 13.1271 13.3802 13.1271C13.4063 13.1271 13.4308 13.1271 13.4661 13.1256C13.5029 13.1241 13.5413 13.1241 13.5827 13.1225C13.6241 13.121 13.6686 13.121 13.7162 13.1195C13.7637 13.1179 13.8098 13.1179 13.8558 13.1179C13.9816 13.1179 14.0859 13.1333 14.1718 13.1655C14.2485 13.1916 14.3191 13.2345 14.3774 13.2913C14.4265 13.3404 14.4648 13.4002 14.4893 13.4662C14.5124 13.5306 14.5246 13.5966 14.5246 13.6656C14.5246 13.7975 14.4939 13.9064 14.4326 13.9923C14.3712 14.0783 14.2853 14.1427 14.1856 14.1795C14.0813 14.2179 13.9662 14.2317 13.8404 14.2317C13.8036 14.2317 13.7791 14.2317 13.7637 14.2301C13.7484 14.2286 13.7269 14.2286 13.6978 14.2286V14.721C13.6993 14.7318 13.6916 14.741 13.6809 14.7425H13.3833C13.371 14.7425 13.3649 14.7364 13.3649 14.7226ZM13.6993 13.4232V13.9387C13.7208 13.9402 13.7407 13.9417 13.7591 13.9417H13.8404C13.9003 13.9417 13.9601 13.9325 14.0169 13.9141C14.0659 13.9003 14.1089 13.8712 14.1426 13.8328C14.1749 13.7944 14.1902 13.7423 14.1902 13.6748C14.1917 13.6272 14.1795 13.5797 14.1549 13.5383C14.1288 13.4984 14.092 13.4677 14.0475 13.4508C13.9908 13.4278 13.9294 13.4186 13.8665 13.4201C13.8266 13.4201 13.7913 13.4201 13.7622 13.4217C13.7315 13.4201 13.71 13.4217 13.6993 13.4232ZM15.4819 13.8451C15.4359 13.8205 15.3868 13.8037 15.3346 13.7929C15.2779 13.7806 15.2211 13.773 15.1628 13.773C15.1321 13.7714 15.0999 13.776 15.0708 13.7837C15.0508 13.7883 15.0339 13.7991 15.0232 13.8144C15.0155 13.8267 15.0109 13.842 15.0109 13.8558C15.0109 13.8696 15.0171 13.8834 15.0263 13.8957C15.0401 13.9126 15.0585 13.9264 15.0784 13.9371C15.1137 13.9555 15.1505 13.9724 15.1874 13.9877C15.2702 14.0154 15.35 14.0537 15.4236 14.0997C15.4742 14.1319 15.5156 14.1749 15.5448 14.2271C15.5693 14.2761 15.5816 14.3298 15.5801 14.3851C15.5816 14.4572 15.5601 14.5293 15.5202 14.5891C15.4773 14.6505 15.4175 14.698 15.3484 14.7256C15.2733 14.7578 15.1812 14.7747 15.0708 14.7747C15.0002 14.7747 14.9312 14.7686 14.8621 14.7548C14.8084 14.7456 14.7547 14.7287 14.7057 14.7057C14.6949 14.6996 14.6872 14.6888 14.6888 14.6765V14.4096C14.6888 14.405 14.6903 14.3989 14.6949 14.3958C14.6995 14.3927 14.7041 14.3943 14.7087 14.3973C14.7685 14.4326 14.8314 14.4572 14.8989 14.4725C14.9572 14.4879 15.0186 14.4955 15.08 14.4955C15.1383 14.4955 15.1797 14.4879 15.2073 14.474C15.2318 14.4633 15.2487 14.4372 15.2487 14.4096C15.2487 14.3881 15.2364 14.3682 15.2119 14.3483C15.1874 14.3283 15.1367 14.3053 15.0616 14.2761C14.9833 14.2485 14.9112 14.2117 14.8437 14.1657C14.7962 14.1319 14.7563 14.0875 14.7271 14.0353C14.7026 13.9862 14.6903 13.9325 14.6918 13.8788C14.6918 13.8129 14.7103 13.75 14.744 13.6932C14.7824 13.6318 14.8391 13.5827 14.9051 13.5521C14.9772 13.5152 15.0677 13.4984 15.1766 13.4984C15.2395 13.4984 15.3039 13.503 15.3668 13.5122C15.4129 13.5183 15.4574 13.5306 15.4988 13.5475C15.5049 13.549 15.511 13.5551 15.5141 13.5613C15.5156 13.5674 15.5172 13.5735 15.5172 13.5797V13.8297C15.5172 13.8359 15.5141 13.842 15.5095 13.8451C15.4957 13.8481 15.488 13.8481 15.4819 13.8451Z" fill="#31A8FF"/>
<g clip-path="url(#clip0_151_293)">
<path d="M15.6665 12.3247H13.208C13.0739 12.3247 12.9452 12.378 12.8504 12.4729C12.7555 12.5677 12.7022 12.6964 12.7022 12.8305V15.289C12.7022 15.4231 12.7555 15.5518 12.8504 15.6466C12.9452 15.7415 13.0739 15.7948 13.208 15.7948H15.6665C15.8006 15.7948 15.9293 15.7415 16.0242 15.6466C16.119 15.5518 16.1723 15.4231 16.1723 15.289V12.8305C16.1723 12.6964 16.119 12.5677 16.0242 12.4729C15.9293 12.378 15.8006 12.3247 15.6665 12.3247Z" fill="#2E3139"/>
<path d="M15.6665 12.4764C15.7604 12.4765 15.8505 12.5138 15.9169 12.5802C15.9833 12.6466 16.0206 12.7367 16.0206 12.8306V15.289C16.0205 15.3829 15.9832 15.473 15.9168 15.5394C15.8504 15.6058 15.7603 15.6431 15.6664 15.6431H13.2081C13.1142 15.643 13.0241 15.6057 12.9578 15.5393C12.8914 15.4729 12.8541 15.3828 12.8541 15.2889V12.8306C12.8541 12.7367 12.8914 12.6466 12.9578 12.5803C13.0243 12.5139 13.1143 12.4766 13.2082 12.4766H15.6666L15.6665 12.4764ZM15.6665 12.3247H13.208C13.0739 12.3247 12.9452 12.378 12.8504 12.4729C12.7555 12.5677 12.7022 12.6964 12.7022 12.8305V15.289C12.7022 15.4231 12.7555 15.5518 12.8504 15.6466C12.9452 15.7415 13.0739 15.7948 13.208 15.7948H15.6665C15.8006 15.7948 15.9293 15.7415 16.0242 15.6466C16.119 15.5518 16.1723 15.4231 16.1723 15.289V12.8305C16.1723 12.6964 16.119 12.5677 16.0242 12.4729C15.9293 12.378 15.8006 12.3247 15.6665 12.3247Z" fill="#2D2F38"/>
<path d="M14.0048 15.3573C14.1195 15.3573 14.2294 15.3117 14.3105 15.2307C14.3916 15.1496 14.4372 15.0397 14.4373 14.925V14.4924H14.0048C13.8901 14.4924 13.7801 14.538 13.699 14.6191C13.6178 14.7002 13.5723 14.8103 13.5723 14.925C13.5723 15.0397 13.6178 15.1497 13.699 15.2309C13.7801 15.312 13.8901 15.3576 14.0048 15.3576V15.3573Z" fill="#0ACF83"/>
<path d="M13.5723 14.0596C13.5723 14.0028 13.5835 13.9466 13.6052 13.8941C13.6269 13.8417 13.6588 13.794 13.699 13.7538C13.7391 13.7137 13.7868 13.6818 13.8393 13.6601C13.8918 13.6384 13.948 13.6272 14.0048 13.6272H14.4373V14.4921H14.0048C13.948 14.4921 13.8918 14.4809 13.8393 14.4592C13.7868 14.4375 13.7391 14.4056 13.6989 14.3655C13.6587 14.3253 13.6269 14.2776 13.6051 14.2252C13.5834 14.1727 13.5723 14.1164 13.5723 14.0596Z" fill="#A259FF"/>
<path d="M13.5723 13.1947C13.5723 13.1379 13.5835 13.0816 13.6052 13.0291C13.6269 12.9767 13.6588 12.929 13.699 12.8888C13.7391 12.8487 13.7868 12.8168 13.8393 12.7951C13.8918 12.7734 13.948 12.7622 14.0048 12.7622H14.4373V13.6272H14.0048C13.948 13.6272 13.8917 13.6161 13.8392 13.5943C13.7867 13.5726 13.739 13.5407 13.6988 13.5006C13.6586 13.4604 13.6267 13.4127 13.605 13.3601C13.5833 13.3076 13.5721 13.2514 13.5721 13.1945L13.5723 13.1947Z" fill="#F24E1E"/>
<path d="M14.4374 12.7648H14.8698C14.9266 12.7648 14.9829 12.776 15.0353 12.7977C15.0878 12.8194 15.1355 12.8513 15.1756 12.8914C15.2158 12.9316 15.2477 12.9793 15.2694 13.0318C15.2911 13.0842 15.3023 13.1405 15.3023 13.1973C15.3023 13.2541 15.2911 13.3103 15.2694 13.3628C15.2477 13.4153 15.2158 13.4629 15.1756 13.5031C15.1355 13.5433 15.0878 13.5751 15.0353 13.5969C14.9829 13.6186 14.9266 13.6298 14.8698 13.6298H14.4374V12.7648Z" fill="#FF7262"/>
<path d="M15.3024 14.0596C15.3024 14.1743 15.2568 14.2843 15.1757 14.3654C15.0946 14.4465 14.9846 14.4921 14.8699 14.4921C14.7553 14.4921 14.6453 14.4465 14.5642 14.3654C14.4831 14.2843 14.4375 14.1743 14.4375 14.0596C14.4375 13.945 14.4831 13.835 14.5642 13.7539C14.6453 13.6728 14.7553 13.6272 14.8699 13.6272C14.9846 13.6272 15.0946 13.6728 15.1757 13.7539C15.2568 13.835 15.3024 13.945 15.3024 14.0596Z" fill="#1ABCFE"/>
</g>
<g clip-path="url(#clip1_151_293)">
<path d="M5.08547 0H23.6325C26.4444 0 28.7179 2.2735 28.7179 5.08547V22.9145C28.7179 25.7265 26.4444 28 23.6325 28H5.08547C2.2735 28 0 25.7265 0 22.9145V5.08547C0 2.2735 2.2735 0 5.08547 0Z" fill="#470137"/>
<path d="M15.1009 7.35909L11.5111 13.2822L15.3402 19.5642C15.3641 19.6121 15.3761 19.6599 15.3641 19.7078C15.3521 19.7557 15.3043 19.7198 15.2325 19.7317H12.4923C12.3009 19.7317 12.1692 19.7198 12.0855 19.6001C11.8342 19.0976 11.5709 18.607 11.3197 18.1044C11.0684 17.6138 10.7932 17.1112 10.506 16.5967C10.2188 16.0822 9.93163 15.5676 9.64445 15.0411H9.62052C9.36924 15.5557 9.09403 16.0702 8.81881 16.5847C8.5436 17.0993 8.26839 17.6138 8.00514 18.1164C7.72992 18.6189 7.45471 19.1335 7.1795 19.6241C7.13163 19.7437 7.03591 19.7557 6.90428 19.7557H4.2718C4.22394 19.7557 4.18804 19.7796 4.18804 19.7198C4.17608 19.6719 4.18804 19.624 4.21198 19.5882L7.93334 13.4856L4.3077 7.34713C4.2718 7.29926 4.25984 7.2514 4.28377 7.22747C4.3077 7.19157 4.35557 7.1796 4.40343 7.1796H7.11967C7.1795 7.1796 7.23933 7.19157 7.28719 7.20354C7.33505 7.22747 7.37095 7.26336 7.40685 7.31123C7.6342 7.82576 7.89745 8.34029 8.17266 8.85482C8.45984 9.36935 8.73505 9.87191 9.0342 10.3745C9.32138 10.877 9.58462 11.3796 9.83591 11.8941H9.85984C10.1111 11.3676 10.3744 10.8531 10.6376 10.3505C10.9009 9.84798 11.1761 9.34542 11.4513 8.84285C11.7265 8.34029 11.9898 7.82576 12.253 7.33516C12.265 7.2873 12.2889 7.23943 12.3248 7.2155C12.3727 7.19157 12.4205 7.1796 12.4804 7.19157H15.0051C15.065 7.1796 15.1248 7.2155 15.1368 7.27533C15.1487 7.2873 15.1248 7.33516 15.1009 7.35909ZM20.6291 19.983C19.7436 19.995 18.8581 19.8155 18.0564 19.4446C17.3026 19.0976 16.6804 18.5232 16.2496 17.8172C15.8068 17.0873 15.5915 16.1779 15.5915 15.089C15.5795 14.2035 15.8068 13.33 16.2496 12.5642C16.7043 11.7864 17.3624 11.1403 18.1521 10.7095C18.9898 10.2429 19.9949 10.0155 21.1795 10.0155C21.2393 10.0155 21.3231 10.0155 21.4308 10.0275C21.5385 10.0394 21.6581 10.0394 21.8017 10.0514V6.2702C21.8017 6.18644 21.8376 6.13858 21.9214 6.13858H24.3504C24.4103 6.12661 24.4581 6.17448 24.4701 6.22234V17.6377C24.4701 17.8531 24.4821 18.0924 24.494 18.3557C24.518 18.607 24.5299 18.8463 24.5419 19.0497C24.5419 19.1335 24.506 19.2052 24.4222 19.2411C23.8 19.5044 23.1419 19.6958 22.4718 19.8155C21.8615 19.9232 21.2513 19.983 20.6291 19.983ZM21.8017 17.5899V12.3249C21.694 12.301 21.5863 12.277 21.4786 12.2651C21.347 12.2531 21.2154 12.2411 21.0838 12.2411C20.6171 12.2411 20.1504 12.3369 19.7316 12.5523C19.3248 12.7557 18.9778 13.0548 18.7145 13.4377C18.4513 13.8206 18.3197 14.3352 18.3197 14.9574C18.3077 15.3762 18.3795 15.795 18.5231 16.1899C18.6427 16.5129 18.8222 16.8001 19.0615 17.0394C19.2889 17.2548 19.5641 17.4223 19.8752 17.5181C20.1983 17.6258 20.5333 17.6736 20.8684 17.6736C21.0479 17.6736 21.2154 17.6617 21.3709 17.6497C21.5265 17.6617 21.6581 17.6377 21.8017 17.5899Z" fill="#FF61F6"/>
</g>
<defs>
<clipPath id="clip0_151_293">
<rect width="3.47009" height="3.47009" fill="white" transform="translate(12.7022 12.3247)"/>
</clipPath>
<clipPath id="clip1_151_293">
<rect width="28.7179" height="28" fill="white"/>
</clipPath>
</defs>
</svg>
