<svg width="29" height="28" viewBox="0 0 29 28" fill="none" xmlns="http://www.w3.org/2000/svg">
<path d="M14.6452 13.8948H14.7845C14.8056 13.8948 14.8227 13.9119 14.8227 13.933V14.0669C14.8227 14.088 14.8056 14.1051 14.7845 14.1051H14.6452C14.6241 14.1051 14.607 14.088 14.607 14.0669V13.933C14.607 13.9119 14.6241 13.8948 14.6452 13.8948Z" fill="#001E36"/>
<path d="M14.6555 14.0423V13.9498C14.6555 13.9491 14.6558 13.9488 14.6564 13.9488C14.6579 13.9488 14.6594 13.9488 14.6615 13.9487C14.6636 13.9486 14.6659 13.9486 14.6683 13.9485C14.6707 13.9484 14.6733 13.9484 14.6761 13.9483C14.6789 13.9482 14.6816 13.9482 14.6843 13.9482C14.6917 13.9482 14.6978 13.9491 14.7028 13.951C14.7073 13.9526 14.7114 13.9551 14.7148 13.9584C14.7177 13.9613 14.72 13.9648 14.7214 13.9686C14.7228 13.9724 14.7235 13.9763 14.7235 13.9803C14.7235 13.9881 14.7217 13.9944 14.7181 13.9995C14.7145 14.0045 14.7095 14.0083 14.7036 14.0104C14.6975 14.0127 14.6908 14.0135 14.6834 14.0135C14.6812 14.0135 14.6798 14.0135 14.6789 14.0134C14.678 14.0133 14.6767 14.0133 14.675 14.0133V14.0422C14.6751 14.0428 14.6747 14.0433 14.674 14.0434H14.6566C14.6559 14.0434 14.6555 14.0431 14.6555 14.0423ZM14.6751 13.9661V13.9963C14.6764 13.9964 14.6775 13.9965 14.6786 13.9965H14.6834C14.6869 13.9965 14.6904 13.996 14.6937 13.9949C14.6966 13.9941 14.6991 13.9924 14.7011 13.9901C14.703 13.9879 14.7039 13.9848 14.7039 13.9809C14.704 13.9781 14.7032 13.9753 14.7018 13.9729C14.7003 13.9705 14.6981 13.9687 14.6955 13.9677C14.6922 13.9664 14.6886 13.9659 14.6849 13.9659C14.6826 13.9659 14.6805 13.966 14.6788 13.966C14.677 13.966 14.6757 13.966 14.6751 13.9661ZM14.7796 13.9908C14.7769 13.9894 14.774 13.9884 14.7709 13.9878C14.7676 13.9871 14.7643 13.9866 14.7609 13.9866C14.7591 13.9865 14.7572 13.9868 14.7555 13.9873C14.7543 13.9875 14.7533 13.9882 14.7527 13.9891C14.7522 13.9898 14.752 13.9907 14.752 13.9915C14.752 13.9923 14.7523 13.9931 14.7529 13.9938C14.7537 13.9948 14.7548 13.9956 14.7559 13.9962C14.758 13.9973 14.7601 13.9983 14.7623 13.9992C14.7672 14.0008 14.7718 14.0031 14.7761 14.0058C14.7791 14.0077 14.7815 14.0102 14.7832 14.0132C14.7847 14.0161 14.7854 14.0193 14.7853 14.0225C14.7854 14.0267 14.7841 14.0309 14.7818 14.0344C14.7793 14.038 14.7758 14.0408 14.7717 14.0424C14.7673 14.0443 14.7619 14.0453 14.7555 14.0453C14.7513 14.0453 14.7473 14.045 14.7432 14.0442C14.7401 14.0436 14.737 14.0426 14.7341 14.0413C14.7334 14.0409 14.733 14.0403 14.7331 14.0396V14.0239C14.7331 14.0237 14.7332 14.0233 14.7334 14.0231C14.7337 14.0229 14.734 14.023 14.7343 14.0232C14.7378 14.0253 14.7414 14.0267 14.7454 14.0276C14.7488 14.0285 14.7524 14.029 14.756 14.029C14.7594 14.029 14.7619 14.0285 14.7635 14.0277C14.7649 14.0271 14.7659 14.0255 14.7659 14.0239C14.7659 14.0227 14.7652 14.0215 14.7637 14.0203C14.7623 14.0192 14.7593 14.0178 14.7549 14.0161C14.7503 14.0145 14.7461 14.0123 14.7422 14.0096C14.7394 14.0077 14.737 14.0051 14.7353 14.002C14.7339 13.9991 14.7332 13.996 14.7333 13.9928C14.7333 13.989 14.7343 13.9853 14.7363 13.9819C14.7386 13.9784 14.7419 13.9755 14.7458 13.9737C14.75 13.9715 14.7553 13.9705 14.7617 13.9705C14.7654 13.9705 14.7691 13.9708 14.7728 13.9713C14.7755 13.9717 14.7781 13.9724 14.7806 13.9734C14.7809 13.9735 14.7813 13.9739 14.7814 13.9742C14.7815 13.9746 14.7816 13.9749 14.7816 13.9753V13.9899C14.7816 13.9903 14.7814 13.9907 14.7812 13.9908C14.7804 13.991 14.7799 13.991 14.7796 13.9908Z" fill="#31A8FF"/>
<g clip-path="url(#clip0_151_319)">
<path d="M14.7904 13.9019H14.6463C14.6385 13.9019 14.6309 13.905 14.6254 13.9105C14.6198 13.9161 14.6167 13.9236 14.6167 13.9315V14.0755C14.6167 14.0834 14.6198 14.0909 14.6254 14.0965C14.6309 14.1021 14.6385 14.1052 14.6463 14.1052H14.7904C14.7982 14.1052 14.8058 14.1021 14.8113 14.0965C14.8169 14.0909 14.82 14.0834 14.82 14.0755V13.9315C14.82 13.9236 14.8169 13.9161 14.8113 13.9105C14.8058 13.905 14.7982 13.9019 14.7904 13.9019Z" fill="#2E3139"/>
<path d="M14.7904 13.9107C14.7959 13.9107 14.8012 13.9129 14.8051 13.9168C14.8089 13.9207 14.8111 13.926 14.8111 13.9315V14.0755C14.8111 14.081 14.8089 14.0863 14.8051 14.0902C14.8012 14.0941 14.7959 14.0963 14.7904 14.0963H14.6463C14.6408 14.0963 14.6356 14.0941 14.6317 14.0902C14.6278 14.0863 14.6256 14.081 14.6256 14.0755V13.9315C14.6256 13.926 14.6278 13.9207 14.6317 13.9168C14.6356 13.9129 14.6408 13.9108 14.6463 13.9108H14.7904L14.7904 13.9107ZM14.7904 13.9019H14.6463C14.6385 13.9019 14.6309 13.905 14.6254 13.9105C14.6198 13.9161 14.6167 13.9236 14.6167 13.9315V14.0755C14.6167 14.0834 14.6198 14.0909 14.6254 14.0965C14.6309 14.1021 14.6385 14.1052 14.6463 14.1052H14.7904C14.7982 14.1052 14.8058 14.1021 14.8113 14.0965C14.8169 14.0909 14.82 14.0834 14.82 14.0755V13.9315C14.82 13.9236 14.8169 13.9161 14.8113 13.9105C14.8058 13.905 14.7982 13.9019 14.7904 13.9019Z" fill="#2D2F38"/>
<path d="M14.693 14.0795C14.6997 14.0795 14.7062 14.0768 14.7109 14.0721C14.7157 14.0673 14.7183 14.0609 14.7183 14.0542V14.0288H14.693C14.6863 14.0288 14.6798 14.0315 14.6751 14.0362C14.6703 14.041 14.6677 14.0474 14.6677 14.0542C14.6677 14.0609 14.6703 14.0673 14.6751 14.0721C14.6798 14.0768 14.6863 14.0795 14.693 14.0795V14.0795Z" fill="#0ACF83"/>
<path d="M14.6677 14.0036C14.6677 14.0003 14.6683 13.997 14.6696 13.9939C14.6709 13.9908 14.6727 13.988 14.6751 13.9857C14.6774 13.9833 14.6802 13.9815 14.6833 13.9802C14.6864 13.9789 14.6897 13.9783 14.693 13.9783H14.7184V14.0289H14.693C14.6897 14.0289 14.6864 14.0283 14.6833 14.027C14.6802 14.0257 14.6774 14.0239 14.6751 14.0215C14.6727 14.0192 14.6709 14.0164 14.6696 14.0133C14.6683 14.0102 14.6677 14.0069 14.6677 14.0036Z" fill="#A259FF"/>
<path d="M14.6677 13.9528C14.6677 13.9495 14.6683 13.9462 14.6696 13.9431C14.6709 13.9401 14.6727 13.9373 14.6751 13.9349C14.6774 13.9326 14.6802 13.9307 14.6833 13.9294C14.6864 13.9281 14.6897 13.9275 14.693 13.9275H14.7184V13.9782H14.693C14.6897 13.9782 14.6864 13.9775 14.6833 13.9762C14.6802 13.975 14.6774 13.9731 14.6751 13.9708C14.6727 13.9684 14.6709 13.9656 14.6696 13.9625C14.6683 13.9594 14.6677 13.9562 14.6677 13.9528L14.6677 13.9528Z" fill="#F24E1E"/>
<path d="M14.7184 13.9277H14.7437C14.7471 13.9277 14.7503 13.9284 14.7534 13.9297C14.7565 13.9309 14.7593 13.9328 14.7616 13.9352C14.764 13.9375 14.7659 13.9403 14.7671 13.9434C14.7684 13.9465 14.7691 13.9498 14.7691 13.9531C14.7691 13.9564 14.7684 13.9597 14.7671 13.9628C14.7659 13.9659 14.764 13.9686 14.7616 13.971C14.7593 13.9734 14.7565 13.9752 14.7534 13.9765C14.7503 13.9778 14.7471 13.9784 14.7437 13.9784H14.7184V13.9277Z" fill="#FF7262"/>
<path d="M14.7691 14.0036C14.7691 14.0103 14.7664 14.0168 14.7616 14.0215C14.7569 14.0263 14.7504 14.0289 14.7437 14.0289C14.737 14.0289 14.7306 14.0263 14.7258 14.0215C14.7211 14.0168 14.7184 14.0103 14.7184 14.0036C14.7184 13.9969 14.7211 13.9904 14.7258 13.9857C14.7306 13.9809 14.737 13.9783 14.7437 13.9783C14.7504 13.9783 14.7569 13.9809 14.7616 13.9857C14.7664 13.9904 14.7691 13.9969 14.7691 14.0036Z" fill="#1ABCFE"/>
</g>
<g clip-path="url(#clip1_151_319)">
<path d="M14.1704 13.1797H15.2572C15.4219 13.1797 15.5551 13.3129 15.5551 13.4777V14.5223C15.5551 14.6871 15.4219 14.8203 15.2572 14.8203H14.1704C14.0056 14.8203 13.8724 14.6871 13.8724 14.5223V13.4777C13.8724 13.3129 14.0056 13.1797 14.1704 13.1797Z" fill="#470137"/>
<path d="M14.7573 13.6109L14.5469 13.958L14.7713 14.3261C14.7727 14.3289 14.7734 14.3317 14.7727 14.3345C14.772 14.3373 14.7692 14.3352 14.765 14.3359H14.6044C14.5932 14.3359 14.5855 14.3352 14.5806 14.3282C14.5658 14.2987 14.5504 14.27 14.5357 14.2405C14.521 14.2118 14.5048 14.1823 14.488 14.1522C14.4712 14.122 14.4544 14.0919 14.4375 14.0611H14.4361C14.4214 14.0912 14.4053 14.1213 14.3892 14.1515C14.373 14.1816 14.3569 14.2118 14.3415 14.2412C14.3254 14.2707 14.3092 14.3008 14.2931 14.3296C14.2903 14.3366 14.2847 14.3373 14.277 14.3373H14.1227C14.1199 14.3373 14.1178 14.3387 14.1178 14.3352C14.1171 14.3324 14.1178 14.3296 14.1192 14.3275L14.3373 13.9699L14.1248 13.6102C14.1227 13.6074 14.122 13.6046 14.1234 13.6032C14.1248 13.6011 14.1276 13.6004 14.1304 13.6004H14.2896C14.2931 13.6004 14.2966 13.6011 14.2994 13.6018C14.3022 13.6032 14.3043 13.6053 14.3064 13.6081C14.3198 13.6383 14.3352 13.6684 14.3513 13.6986C14.3681 13.7287 14.3843 13.7582 14.4018 13.7876C14.4186 13.8171 14.434 13.8465 14.4488 13.8767H14.4502C14.4649 13.8458 14.4803 13.8157 14.4957 13.7862C14.5112 13.7568 14.5273 13.7273 14.5434 13.6979C14.5595 13.6684 14.575 13.6383 14.5904 13.6095C14.5911 13.6067 14.5925 13.6039 14.5946 13.6025C14.5974 13.6011 14.6002 13.6004 14.6037 13.6011H14.7516C14.7551 13.6004 14.7587 13.6025 14.7594 13.606C14.7601 13.6067 14.7587 13.6095 14.7573 13.6109ZM15.0812 14.3506C15.0293 14.3513 14.9774 14.3408 14.9304 14.3191C14.8863 14.2987 14.8498 14.2651 14.8246 14.2237C14.7986 14.1809 14.786 14.1277 14.786 14.0639C14.7853 14.012 14.7986 13.9608 14.8246 13.9159C14.8512 13.8703 14.8898 13.8325 14.936 13.8072C14.9851 13.7799 15.044 13.7666 15.1134 13.7666C15.1169 13.7666 15.1218 13.7666 15.1281 13.7673C15.1345 13.768 15.1415 13.768 15.1499 13.7687V13.5471C15.1499 13.5422 15.152 13.5394 15.1569 13.5394H15.2992C15.3027 13.5387 15.3055 13.5415 15.3062 13.5443V14.2132C15.3062 14.2258 15.3069 14.2398 15.3076 14.2553C15.309 14.27 15.3097 14.284 15.3104 14.2959C15.3104 14.3008 15.3083 14.305 15.3034 14.3071C15.267 14.3226 15.2284 14.3338 15.1891 14.3408C15.1534 14.3471 15.1176 14.3506 15.0812 14.3506ZM15.1499 14.2104V13.9019C15.1436 13.9005 15.1373 13.8991 15.1309 13.8984C15.1232 13.8977 15.1155 13.897 15.1078 13.897C15.0805 13.897 15.0531 13.9026 15.0286 13.9152C15.0047 13.9271 14.9844 13.9447 14.969 13.9671C14.9536 13.9895 14.9459 14.0197 14.9459 14.0561C14.9452 14.0807 14.9494 14.1052 14.9578 14.1284C14.9648 14.1473 14.9753 14.1641 14.9893 14.1781C15.0026 14.1908 15.0188 14.2006 15.037 14.2062C15.0559 14.2125 15.0756 14.2153 15.0952 14.2153C15.1057 14.2153 15.1155 14.2146 15.1246 14.2139C15.1338 14.2146 15.1415 14.2132 15.1499 14.2104Z" fill="#FF61F6"/>
</g>
<path d="M4.60077 25.1562L2.35858 0H27.0226L24.7805 25.1562L14.6633 28" fill="#E34F26"/>
<path d="M14.718 25.8125L22.8664 23.5703L24.7805 2.02344H14.718" fill="#EF652A"/>
<path d="M14.718 11.375H10.6164L10.343 8.20312H14.718V5.14062H6.95233L7.00702 5.96094L7.77264 14.4922H14.718V11.375ZM14.718 19.4141H14.6633L11.218 18.4844L10.9992 16.0234H7.93671L8.31952 20.8906L14.6633 22.6406H14.718V19.4141Z" fill="#EBEBEB"/>
<path d="M14.6633 11.375V14.4922H18.4914L18.1086 18.4844L14.6633 19.4141V22.6406L21.007 20.8906L21.0617 20.3438L21.7726 12.1953L21.882 11.375H21.007H14.6633ZM14.6633 5.14062V8.20312H22.1555L22.2101 7.54688L22.3742 5.96094L22.4289 5.14062H14.6633Z" fill="white"/>
<defs>
<clipPath id="clip0_151_319">
<rect width="0.203325" height="0.203325" fill="white" transform="translate(14.6167 13.9019)"/>
</clipPath>
<clipPath id="clip1_151_319">
<rect width="1.68269" height="1.64062" fill="white" transform="translate(13.8724 13.1797)"/>
</clipPath>
</defs>
</svg>
