<svg width="29" height="28" viewBox="0 0 29 28" fill="none" xmlns="http://www.w3.org/2000/svg">
<path d="M14.6589 13.9146H14.7721C14.7893 13.9146 14.8031 13.9284 14.8031 13.9456V14.0544C14.8031 14.0716 14.7893 14.0855 14.7721 14.0855H14.6589C14.6417 14.0855 14.6278 14.0716 14.6278 14.0544V13.9456C14.6278 13.9284 14.6417 13.9146 14.6589 13.9146Z" fill="#001E36"/>
<path d="M14.6672 14.0344V13.9592C14.6672 13.9587 14.6674 13.9584 14.6679 13.9584C14.6691 13.9584 14.6703 13.9584 14.672 13.9584C14.6737 13.9583 14.6756 13.9583 14.6775 13.9582C14.6795 13.9582 14.6816 13.9582 14.6839 13.9581C14.6862 13.958 14.6884 13.958 14.6906 13.958C14.6965 13.958 14.7015 13.9587 14.7056 13.9603C14.7093 13.9615 14.7126 13.9636 14.7154 13.9663C14.7177 13.9686 14.7196 13.9714 14.7207 13.9746C14.7218 13.9777 14.7224 13.9808 14.7224 13.9841C14.7224 13.9904 14.7209 13.9956 14.718 13.9996C14.7151 14.0037 14.711 14.0068 14.7063 14.0086C14.7013 14.0104 14.6958 14.011 14.6898 14.011C14.6881 14.011 14.6869 14.011 14.6862 14.011C14.6844 14.0108 14.683 14.0123 14.683 14.014V14.0336C14.683 14.0341 14.6831 14.0346 14.6828 14.035C14.6825 14.0354 14.682 14.0354 14.6815 14.0354H14.6681C14.6675 14.0354 14.6672 14.0351 14.6672 14.0344ZM14.6861 13.9725C14.6844 13.9724 14.6831 13.9738 14.6831 13.9755V13.9942C14.6831 13.9958 14.6843 13.9972 14.6859 13.9972H14.6898C14.6927 13.9972 14.6955 13.9968 14.6982 13.9959C14.7006 13.9953 14.7026 13.9939 14.7042 13.992C14.7057 13.9902 14.7065 13.9877 14.7065 13.9845C14.7065 13.9823 14.706 13.98 14.7048 13.978C14.7036 13.9761 14.7018 13.9747 14.6997 13.9739C14.697 13.9728 14.6941 13.9723 14.6911 13.9724C14.6892 13.9724 14.6875 13.9724 14.6861 13.9725ZM14.768 13.9926C14.7658 13.9915 14.7635 13.9907 14.761 13.9902C14.7583 13.9896 14.7556 13.9892 14.7528 13.9892C14.7513 13.9891 14.7498 13.9893 14.7484 13.9897C14.7475 13.9899 14.7467 13.9904 14.7461 13.9912C14.7458 13.9918 14.7456 13.9925 14.7456 13.9931C14.7456 13.9938 14.7459 13.9945 14.7463 13.995C14.7469 13.9958 14.7478 13.9965 14.7488 13.997C14.7505 13.9979 14.7522 13.9987 14.754 13.9994C14.7579 14.0007 14.7617 14.0026 14.7652 14.0048C14.7676 14.0063 14.7696 14.0083 14.771 14.0108C14.7722 14.0132 14.7727 14.0157 14.7727 14.0183C14.7727 14.0218 14.7717 14.0252 14.7698 14.0281C14.7678 14.031 14.7649 14.0333 14.7616 14.0346C14.7581 14.0361 14.7537 14.0369 14.7484 14.0369C14.745 14.0369 14.7418 14.0366 14.7385 14.036C14.7359 14.0355 14.7334 14.0347 14.731 14.0336C14.7305 14.0333 14.7301 14.0328 14.7302 14.0322V14.0195C14.7302 14.0193 14.7303 14.019 14.7305 14.0189C14.7307 14.0187 14.7309 14.0188 14.7312 14.0189C14.734 14.0206 14.737 14.0218 14.7402 14.0225C14.743 14.0232 14.7459 14.0236 14.7488 14.0236C14.7516 14.0236 14.7536 14.0232 14.7549 14.0226C14.7561 14.0221 14.7569 14.0208 14.7569 14.0195C14.7569 14.0185 14.7563 14.0175 14.7551 14.0166C14.754 14.0156 14.7515 14.0145 14.748 14.0132C14.7442 14.0118 14.7408 14.0101 14.7376 14.0079C14.7353 14.0063 14.7334 14.0042 14.732 14.0017C14.7309 13.9994 14.7303 13.9968 14.7304 13.9942C14.7304 13.9911 14.7312 13.9881 14.7328 13.9854C14.7347 13.9825 14.7374 13.9801 14.7405 13.9787C14.744 13.9769 14.7483 13.9761 14.7534 13.9761C14.7564 13.9761 14.7595 13.9763 14.7625 13.9768C14.7646 13.9771 14.7666 13.9776 14.7684 13.9783C14.7687 13.9784 14.7689 13.9785 14.7691 13.9786C14.7694 13.9789 14.7696 13.9793 14.7696 13.9797C14.7697 13.9798 14.7697 13.9799 14.7697 13.98V13.9919C14.7697 13.9925 14.769 13.9928 14.7685 13.9927C14.7683 13.9927 14.7681 13.9927 14.768 13.9926Z" fill="#31A8FF"/>
<g clip-path="url(#clip0_151_381)">
<path d="M14.7768 13.9202H14.6597C14.6533 13.9202 14.6472 13.9227 14.6427 13.9272C14.6382 13.9317 14.6356 13.9379 14.6356 13.9443V14.0613C14.6356 14.0677 14.6382 14.0738 14.6427 14.0784C14.6472 14.0829 14.6533 14.0854 14.6597 14.0854H14.7768C14.7832 14.0854 14.7893 14.0829 14.7938 14.0784C14.7983 14.0738 14.8009 14.0677 14.8009 14.0613V13.9443C14.8009 13.9379 14.7983 13.9317 14.7938 13.9272C14.7893 13.9227 14.7832 13.9202 14.7768 13.9202Z" fill="#2E3139"/>
<path d="M14.7768 13.9274C14.7812 13.9274 14.7855 13.9292 14.7887 13.9323C14.7919 13.9355 14.7936 13.9398 14.7936 13.9443V14.0613C14.7936 14.0658 14.7919 14.0701 14.7887 14.0732C14.7855 14.0764 14.7812 14.0782 14.7768 14.0782H14.6597C14.6552 14.0782 14.651 14.0764 14.6478 14.0732C14.6446 14.0701 14.6429 14.0658 14.6429 14.0613V13.9443C14.6429 13.9398 14.6446 13.9355 14.6478 13.9323C14.651 13.9292 14.6552 13.9274 14.6597 13.9274H14.7768L14.7768 13.9274ZM14.7768 13.9202H14.6597C14.6533 13.9202 14.6472 13.9227 14.6427 13.9272C14.6382 13.9317 14.6356 13.9379 14.6356 13.9443V14.0613C14.6356 14.0677 14.6382 14.0738 14.6427 14.0784C14.6472 14.0829 14.6533 14.0854 14.6597 14.0854H14.7768C14.7832 14.0854 14.7893 14.0829 14.7938 14.0784C14.7983 14.0738 14.8009 14.0677 14.8009 14.0613V13.9443C14.8009 13.9379 14.7983 13.9317 14.7938 13.9272C14.7893 13.9227 14.7832 13.9202 14.7768 13.9202Z" fill="#2D2F38"/>
<path d="M14.6977 14.0646C14.7031 14.0646 14.7084 14.0625 14.7122 14.0586C14.7161 14.0547 14.7183 14.0495 14.7183 14.044V14.0234H14.6977C14.6922 14.0234 14.687 14.0256 14.6831 14.0295C14.6792 14.0333 14.6771 14.0386 14.6771 14.044C14.6771 14.0495 14.6792 14.0547 14.6831 14.0586C14.687 14.0625 14.6922 14.0646 14.6977 14.0646V14.0646Z" fill="#0ACF83"/>
<path d="M14.6771 14.0028C14.6771 14.0001 14.6776 13.9974 14.6786 13.9949C14.6797 13.9924 14.6812 13.9901 14.6831 13.9882C14.685 13.9863 14.6873 13.9848 14.6898 13.9837C14.6923 13.9827 14.695 13.9822 14.6977 13.9822H14.7183V14.0234H14.6977C14.695 14.0234 14.6923 14.0228 14.6898 14.0218C14.6873 14.0208 14.685 14.0192 14.6831 14.0173C14.6812 14.0154 14.6797 14.0132 14.6786 14.0107C14.6776 14.0082 14.6771 14.0055 14.6771 14.0028Z" fill="#A259FF"/>
<path d="M14.6771 13.9615C14.6771 13.9588 14.6776 13.9561 14.6786 13.9536C14.6797 13.9511 14.6812 13.9489 14.6831 13.9469C14.685 13.945 14.6873 13.9435 14.6898 13.9425C14.6923 13.9414 14.695 13.9409 14.6977 13.9409H14.7183V13.9821H14.6977C14.695 13.9821 14.6923 13.9816 14.6898 13.9805C14.6873 13.9795 14.685 13.978 14.6831 13.9761C14.6812 13.9742 14.6797 13.9719 14.6786 13.9694C14.6776 13.9669 14.6771 13.9642 14.6771 13.9615L14.6771 13.9615Z" fill="#F24E1E"/>
<path d="M14.7183 13.9412H14.7389C14.7416 13.9412 14.7442 13.9417 14.7467 13.9427C14.7492 13.9438 14.7515 13.9453 14.7534 13.9472C14.7553 13.9491 14.7568 13.9514 14.7579 13.9539C14.7589 13.9564 14.7594 13.9591 14.7594 13.9618C14.7594 13.9645 14.7589 13.9671 14.7579 13.9696C14.7568 13.9721 14.7553 13.9744 14.7534 13.9763C14.7515 13.9782 14.7492 13.9798 14.7467 13.9808C14.7442 13.9818 14.7416 13.9824 14.7389 13.9824H14.7183V13.9412Z" fill="#FF7262"/>
<path d="M14.7594 14.0028C14.7594 14.0082 14.7573 14.0135 14.7534 14.0173C14.7496 14.0212 14.7443 14.0234 14.7389 14.0234C14.7334 14.0234 14.7282 14.0212 14.7243 14.0173C14.7204 14.0135 14.7183 14.0082 14.7183 14.0028C14.7183 13.9973 14.7204 13.9921 14.7243 13.9882C14.7282 13.9843 14.7334 13.9822 14.7389 13.9822C14.7443 13.9822 14.7496 13.9843 14.7534 13.9882C14.7573 13.9921 14.7594 13.9973 14.7594 14.0028Z" fill="#1ABCFE"/>
</g>
<g clip-path="url(#clip1_151_381)">
<path d="M14.2729 13.3333H15.1561C15.29 13.3333 15.3983 13.4415 15.3983 13.5754V14.4244C15.3983 14.5583 15.29 14.6666 15.1561 14.6666H14.2729C14.139 14.6666 14.0308 14.5583 14.0308 14.4244V13.5754C14.0308 13.4415 14.139 13.3333 14.2729 13.3333Z" fill="#470137"/>
<path d="M14.7499 13.6837L14.5789 13.9657L14.7613 14.2649C14.7624 14.2672 14.763 14.2695 14.7624 14.2717C14.7618 14.274 14.7595 14.2723 14.7561 14.2729H14.6256C14.6165 14.2729 14.6103 14.2723 14.6063 14.2666C14.5943 14.2427 14.5818 14.2193 14.5698 14.1954C14.5578 14.172 14.5447 14.1481 14.5311 14.1236C14.5174 14.0991 14.5037 14.0746 14.49 14.0495H14.4889C14.4769 14.074 14.4638 14.0985 14.4507 14.123C14.4376 14.1475 14.4245 14.172 14.412 14.1959C14.3989 14.2199 14.3858 14.2444 14.3727 14.2677C14.3704 14.2734 14.3658 14.274 14.3595 14.274H14.2342C14.2319 14.274 14.2302 14.2751 14.2302 14.2723C14.2296 14.27 14.2302 14.2677 14.2313 14.266L14.4086 13.9754L14.2359 13.6831C14.2342 13.6808 14.2336 13.6786 14.2348 13.6774C14.2359 13.6757 14.2382 13.6751 14.2405 13.6751H14.3698C14.3727 13.6751 14.3755 13.6757 14.3778 13.6763C14.3801 13.6774 14.3818 13.6791 14.3835 13.6814C14.3943 13.7059 14.4068 13.7304 14.4199 13.7549C14.4336 13.7794 14.4467 13.8034 14.461 13.8273C14.4746 13.8512 14.4872 13.8751 14.4991 13.8997H14.5003C14.5123 13.8746 14.5248 13.8501 14.5373 13.8261C14.5499 13.8022 14.563 13.7783 14.5761 13.7544C14.5892 13.7304 14.6017 13.7059 14.6142 13.6826C14.6148 13.6803 14.616 13.678 14.6177 13.6769C14.6199 13.6757 14.6222 13.6751 14.6251 13.6757H14.7453C14.7482 13.6751 14.751 13.6769 14.7516 13.6797C14.7521 13.6803 14.751 13.6826 14.7499 13.6837ZM15.0131 14.2848C14.9709 14.2854 14.9288 14.2769 14.8906 14.2592C14.8547 14.2427 14.8251 14.2153 14.8046 14.1817C14.7835 14.1469 14.7732 14.1036 14.7732 14.0518C14.7727 14.0096 14.7835 13.968 14.8046 13.9316C14.8262 13.8945 14.8576 13.8638 14.8952 13.8432C14.935 13.821 14.9829 13.8102 15.0393 13.8102C15.0422 13.8102 15.0462 13.8102 15.0513 13.8108C15.0564 13.8113 15.0621 13.8113 15.069 13.8119V13.6318C15.069 13.6279 15.0707 13.6256 15.0746 13.6256H15.1903C15.1932 13.625 15.1954 13.6273 15.196 13.6296V14.1732C15.196 14.1834 15.1966 14.1948 15.1972 14.2073C15.1983 14.2193 15.1989 14.2307 15.1994 14.2404C15.1994 14.2444 15.1977 14.2478 15.1937 14.2495C15.1641 14.262 15.1328 14.2712 15.1009 14.2769C15.0718 14.282 15.0427 14.2848 15.0131 14.2848ZM15.069 14.1709V13.9202C15.0638 13.919 15.0587 13.9179 15.0536 13.9173C15.0473 13.9167 15.041 13.9162 15.0348 13.9162C15.0125 13.9162 14.9903 13.9207 14.9704 13.931C14.951 13.9407 14.9345 13.9549 14.9219 13.9732C14.9094 13.9914 14.9031 14.0159 14.9031 14.0455C14.9026 14.0655 14.906 14.0854 14.9128 14.1042C14.9185 14.1196 14.9271 14.1333 14.9385 14.1447C14.9493 14.1549 14.9624 14.1629 14.9772 14.1675C14.9926 14.1726 15.0086 14.1749 15.0245 14.1749C15.0331 14.1749 15.041 14.1743 15.0484 14.1737C15.0558 14.1743 15.0621 14.1732 15.069 14.1709Z" fill="#FF61F6"/>
</g>
<g clip-path="url(#clip2_151_381)">
<path d="M0.717957 0H28.718V28H0.717957V0Z" fill="#F7DF1E"/>
<path d="M19.5268 21.8752C20.0908 22.7961 20.8246 23.473 22.1224 23.473C23.2126 23.473 23.9091 22.9281 23.9091 22.1752C23.9091 21.273 23.1935 20.9534 21.9935 20.4285L21.3357 20.1463C19.4371 19.3374 18.1757 18.3241 18.1757 16.1819C18.1757 14.2085 19.6793 12.7063 22.0291 12.7063C23.7019 12.7063 24.9046 13.2885 25.7713 14.813L23.7224 16.1285C23.2713 15.3196 22.7846 15.001 22.0291 15.001C21.2584 15.001 20.7699 15.4899 20.7699 16.1285C20.7699 16.9179 21.2588 17.2374 22.3877 17.7263L23.0455 18.0081C25.2811 18.9667 26.5433 19.9441 26.5433 22.1414C26.5433 24.5103 24.6824 25.8081 22.1833 25.8081C19.7397 25.8081 18.1611 24.6436 17.3886 23.1174L19.5268 21.8752ZM10.2322 22.1032C10.6455 22.8365 11.0215 23.4565 11.9255 23.4565C12.7899 23.4565 13.3353 23.1183 13.3353 21.8032V12.8565H15.9664V21.8387C15.9664 24.5632 14.3691 25.8032 12.0375 25.8032C9.93084 25.8032 8.71084 24.713 8.09039 23.3999L10.2322 22.1032Z" fill="black"/>
</g>
<defs>
<clipPath id="clip0_151_381">
<rect x="14.6356" y="13.9202" width="0.165242" height="0.165242" rx="0.0826211" fill="white"/>
</clipPath>
<clipPath id="clip1_151_381">
<rect x="14.0308" y="13.3333" width="1.36752" height="1.33333" rx="0.666667" fill="white"/>
</clipPath>
<clipPath id="clip2_151_381">
<rect x="0.717957" width="28" height="28" rx="4" fill="white"/>
</clipPath>
</defs>
</svg>
