<svg width="29" height="28" viewBox="0 0 29 28" fill="none" xmlns="http://www.w3.org/2000/svg">
<path d="M4.62029 25.2011L2.37335 0H27.0623L24.8131 25.197L14.7028 28L4.62029 25.2011Z" fill="#0377BD"/>
<path d="M22.8876 23.5926L24.8098 2.06055H14.718V25.8575L22.8876 23.5926Z" fill="#039AE4"/>
<path d="M7.52444 11.4072L7.80137 14.4979H14.718V11.4072H7.52444ZM7.24874 8.24208H14.718V5.15137H6.96777L7.24865 8.24216L7.24874 8.24208ZM14.718 19.4344L14.7045 19.438L11.2622 18.5086L11.0422 16.0435H7.93935L8.37251 20.8965L14.7038 22.6542L14.718 22.6501V19.4344Z" fill="#EDEDED"/>
<path d="M14.7073 11.4072V14.4979H18.5133L18.1545 18.5065L14.7073 19.4369V22.6525L21.0436 20.8964L21.0901 20.3742L21.8164 12.2371L21.8919 11.4072L22.4498 5.15137H14.7073V8.24216H19.0625L18.7812 11.4072H14.7073Z" fill="#FEFEFE"/>
</svg>
