<svg width="30" height="28" viewBox="0 0 30 28" fill="none" xmlns="http://www.w3.org/2000/svg">
<path d="M9.135 13.445H2.1C2.22 6.43996 3.6 5.28496 7.905 2.73496C8.4 2.43496 8.565 1.80496 8.265 1.29496C7.98 0.799957 7.335 0.634957 6.84 0.934957C1.77 3.93496 0 5.76496 0 14.48V22.565C0 25.13 2.085 27.2 4.635 27.2H9.135C11.775 27.2 13.77 25.205 13.77 22.565V18.065C13.77 15.44 11.775 13.445 9.135 13.445Z" fill="white"/>
<path d="M25.365 13.445H18.33C18.45 6.43996 19.83 5.28496 24.135 2.73496C24.63 2.43496 24.795 1.80496 24.495 1.29496C24.195 0.799957 23.565 0.634957 23.055 0.934957C17.985 3.93496 16.215 5.76496 16.215 14.495V22.58C16.215 25.145 18.3 27.215 20.85 27.215H25.35C27.99 27.215 29.985 25.22 29.985 22.58V18.08C30 15.44 28.005 13.445 25.365 13.445Z" fill="white"/>
</svg>
